<svg width="170" height="85" viewBox="0 0 170 85" fill="none"
  xmlns="http://www.w3.org/2000/svg">
  <g clip-path="url(#clip0_1396_2798)">
    <path d="M170 0C170 46.869 131.869 85 85 85C38.131 85 0 46.869 0 0H170Z" fill="black"/>
    <path d="M112.293 45.8915C112.293 45.7385 112.2 45.6705 112.021 45.6705H111.724V46.444H111.843V46.1125H111.979L112.183 46.444H112.319L112.098 46.104C112.208 46.0955 112.302 46.0275 112.302 45.8915M111.851 46.0105V45.7725H112.013C112.098 45.7725 112.183 45.7895 112.183 45.883C112.183 46.002 112.089 46.0105 111.987 46.0105H111.851ZM111.996 45.39C111.622 45.39 111.316 45.6705 111.316 46.0615C111.316 46.4525 111.63 46.733 111.996 46.733C112.361 46.733 112.676 46.444 112.676 46.0615C112.676 45.679 112.361 45.39 111.996 45.39ZM111.996 46.6225C111.69 46.6225 111.443 46.3845 111.443 46.0615C111.443 45.7385 111.681 45.5005 111.996 45.5005C112.31 45.5005 112.54 45.747 112.54 46.0615C112.54 46.376 112.302 46.6225 111.996 46.6225Z" fill="#CAAD59"/>
    <path d="M53.0569 52.8955V48.603C53.1164 47.5915 52.7594 46.8605 51.9859 46.2655C50.4474 45.3815 48.5519 46.1465 47.2429 46.9795L47.2004 45.7895H46.4779C45.7639 46.3845 44.9139 46.6735 44.0299 46.7925V47.277C44.2764 47.311 44.9564 47.464 44.9989 47.974V52.9125C44.9989 53.4735 44.2509 53.72 43.7069 53.754V54.3065C45.2114 54.2215 47.0134 54.1875 48.5944 54.3065V53.754C48.0504 53.7285 47.3109 53.363 47.3109 52.904V48.2035C47.6594 47.464 48.7984 46.9285 49.8609 47.226C50.3369 47.345 50.7194 48.025 50.7534 48.6115V52.921C50.7534 53.482 50.0139 53.7285 49.4614 53.7625V54.315C50.9659 54.23 52.7679 54.196 54.3489 54.315V53.7625C53.8049 53.737 53.0569 53.3715 53.0569 52.9125M58.6669 53.2695C58.0294 53.2695 57.9019 52.428 57.9019 52.428V46.8095H59.7549V46.07H57.9019V43.945H57.2559C57.2559 43.945 56.8139 44.71 56.1169 45.2795C55.4284 45.849 54.5869 46.291 54.5869 46.291V46.801H55.7684V52.4535C55.7684 53.465 56.3124 54.4255 57.8934 54.4255C59.4744 54.4255 59.9674 53.295 59.9674 53.295L59.4489 52.921C59.4489 52.921 59.2534 53.261 58.6584 53.261M65.7729 52.8955C63.8349 52.7255 63.4184 51.6035 63.4184 51.6035L68.4504 47.515L68.2124 47.0985C68.2124 47.0985 67.9574 47.0645 67.5834 46.801C67.2094 46.546 65.8239 45.424 63.7669 45.951C61.8034 46.4525 59.9504 48.3735 60.6729 51.2635C61.3444 53.9665 63.7669 54.4 65.0929 54.4085C66.9629 54.4255 68.3144 52.9125 68.4419 52.683L68.0509 52.1815C68.0509 52.1815 67.2774 53.0145 65.7559 52.887M62.9764 48.331C63.1719 47.345 63.4014 46.8095 64.2684 46.5375C65.1354 46.257 65.7049 46.835 65.9004 47.1495C66.0874 47.447 66.4529 48.11 66.2319 48.314L63.0869 50.813C63.0869 50.813 62.7724 49.368 62.9764 48.331ZM74.0519 45.968C73.2784 46.206 72.7514 46.971 72.5134 47.685L72.4794 45.781H71.8419C71.1364 46.376 70.2779 46.665 69.3939 46.784V47.2685C69.6404 47.3025 70.3204 47.4555 70.3629 47.9655V52.904C70.3629 53.465 69.6149 53.7115 69.0709 53.7455V54.298C70.5754 54.213 72.2924 54.179 73.8734 54.298V53.7455C73.3294 53.72 72.5899 53.3545 72.5899 52.8955V49.0365C72.5984 48.552 72.8449 48.059 73.1679 47.753C73.4569 47.4725 73.9414 47.8125 74.2304 47.991C74.7064 48.1695 75.2419 48.0505 75.5904 47.5745C75.8114 47.294 75.8284 46.7415 75.4714 46.3335C75.1144 45.9765 74.5874 45.798 74.0519 45.9765M102.119 45.9765C101.345 46.2145 100.818 46.9795 100.58 47.6935L100.555 45.7895H99.9174C99.2034 46.3845 98.3534 46.6735 97.4694 46.7925V47.277C97.7159 47.311 98.3959 47.464 98.4384 47.974V52.9125C98.4384 53.4735 97.6989 53.72 97.1464 53.754V54.3065C98.6509 54.2215 100.368 54.1875 101.949 54.3065V53.754C101.405 53.7285 100.657 53.363 100.657 52.904V49.045C100.665 48.5605 100.903 48.0675 101.235 47.7615C101.524 47.481 102.008 47.821 102.297 47.9995C102.773 48.178 103.3 48.059 103.657 47.583C103.878 47.3025 103.895 46.75 103.538 46.342C103.181 45.985 102.654 45.8065 102.119 45.985M86.1984 52.904V44.37V42.4745H85.4674C84.7534 43.0695 83.9034 43.3585 83.0194 43.469V43.9535C83.2659 43.9875 83.9374 44.1405 83.9799 44.6505V52.9125C83.9799 53.4735 83.2404 53.72 82.6879 53.754V54.3065C84.1924 54.2215 85.9094 54.1875 87.4904 54.3065V53.754C86.9464 53.7285 86.1984 53.363 86.1984 52.904ZM84.1074 42.6615C84.6429 42.364 84.9404 41.7775 84.7619 41.1825C84.5239 40.647 83.9289 40.2985 83.4019 40.1795C81.5064 39.763 79.9679 40.3835 78.5484 42.075C77.4264 43.3755 77.6389 45.254 77.5794 46.8095H76.2789V47.515H77.5794V52.921C77.5794 53.482 76.8399 53.7285 76.2959 53.7625V54.315C77.8004 54.23 79.4664 54.196 81.0559 54.315V53.7625C80.5119 53.737 79.7639 53.3715 79.7639 52.9125V47.515H81.4299V46.8095H79.7639C79.7639 46.8095 79.6959 42.4915 80.1124 41.8115C80.5289 41.1315 80.8519 41.1825 81.3874 41.1825C82.1014 41.242 82.3309 42.0665 82.8664 42.483C83.1639 42.7805 83.6994 42.7805 84.1074 42.6615ZM92.2249 45.73C89.6919 45.73 87.6179 47.515 87.6434 50.0905C87.6689 52.479 89.6919 54.4085 92.2249 54.4085C94.7579 54.4085 96.8149 52.4705 96.8064 50.0905C96.8064 47.566 95.0044 45.73 92.2249 45.73ZM92.2249 53.6945C90.8564 53.6945 90.0489 52.105 90.0489 50.065C90.0489 48.025 90.8309 46.359 92.2249 46.3675C93.6104 46.376 94.3839 48.025 94.4009 50.065C94.4094 52.1135 93.6529 53.6945 92.2249 53.6945ZM111.307 53.244C110.916 53.2525 110.712 53.006 110.712 52.1475V47.855C110.712 47.855 110.636 45.6875 107.55 45.6875C104.881 45.6875 104.133 47.328 104.218 47.9315C104.261 48.246 104.618 48.484 104.958 48.501C105.68 48.535 106.114 47.617 106.513 46.9965C106.904 46.376 107.278 46.3165 107.601 46.325C108.094 46.3505 108.613 46.9115 108.613 47.498V48.9855C108.613 48.9855 108.205 49.1385 107.695 49.2915C106.93 49.521 106.012 49.725 105.799 49.827C105.561 49.9375 104.023 50.473 104.023 52.3685C104.023 52.3685 104.125 54.3235 106.369 54.3405C107.695 54.349 108.706 53.3035 108.706 53.3035C108.706 53.3035 109.31 54.4 110.517 54.366C112.021 54.3235 112.472 52.785 112.472 52.785L112.123 52.615C112.123 52.615 111.698 53.227 111.307 53.2355M108.621 51.6205C108.587 51.9265 108.842 53.1335 107.295 53.1505C106.275 53.159 106.25 52.207 106.241 51.8415C106.199 50.1245 108.621 49.8865 108.621 49.8865V51.629V51.6205ZM38.2329 40.9275V41.48C38.7769 41.5055 39.5249 41.871 39.5249 42.33V52.904C39.5249 53.465 38.7854 53.7115 38.2414 53.7455V54.298C39.7459 54.213 41.6329 54.179 43.2139 54.298V53.7455C42.6699 53.72 41.9219 53.3545 41.9219 52.8955V42.3215C41.9219 41.7605 42.6614 41.514 43.2139 41.48V40.9275C41.7094 41.0125 39.8224 41.0465 38.2414 40.9275" fill="#CAAD59"/>
    <path d="M92.8539 29.512C92.9644 29.512 93.0664 29.4355 93.1004 29.325C93.7719 27.2 94.1969 26.35 95.1659 24.7095C95.2339 24.5905 95.1999 24.4375 95.0809 24.3695C94.9619 24.3015 94.8089 24.3355 94.7409 24.4545C93.7209 26.214 93.3299 27.0385 92.6159 29.206C92.5734 29.3335 92.6669 29.478 92.7944 29.512C92.8114 29.512 92.8369 29.512 92.8539 29.512ZM130.645 28.628C130.602 28.5005 130.458 28.424 130.33 28.4665C130.203 28.509 130.126 28.6535 130.169 28.781C130.781 30.668 131.112 32.6825 131.112 34.782C131.112 38.8535 129.854 42.636 127.712 45.7555C127.636 45.866 127.661 46.0275 127.78 46.104C127.823 46.1295 127.874 46.1465 127.925 46.1465C128.001 46.1465 128.078 46.1125 128.129 46.036C130.33 42.8315 131.622 38.9555 131.622 34.782C131.622 32.6315 131.282 30.566 130.653 28.628M99.0844 20.009C99.1439 20.009 99.1949 19.992 99.2459 19.9495C102.62 17.102 106.972 15.3935 111.732 15.3935C114.69 15.3935 117.495 16.0565 120.003 17.238C120.13 17.2975 120.275 17.238 120.334 17.119C120.394 16.9915 120.334 16.847 120.215 16.7875C117.64 15.572 114.767 14.892 111.732 14.892C106.853 14.892 102.382 16.6515 98.9229 19.567C98.8209 19.652 98.8039 19.8135 98.8889 19.9155C98.9399 19.975 99.0079 20.0005 99.0759 20.0005" fill="#CAAD59"/>
    <path d="M131.86 53.4395C131.86 53.2865 131.767 53.2185 131.588 53.2185H131.291V53.992H131.41V53.6605H131.546L131.75 53.992H131.886L131.665 53.652C131.784 53.6435 131.869 53.5755 131.869 53.4395M131.418 53.5585V53.3205H131.58C131.665 53.3205 131.75 53.3375 131.75 53.431C131.75 53.55 131.656 53.5585 131.563 53.5585H131.418ZM131.563 52.938C131.189 52.938 130.883 53.2185 130.883 53.6095C130.883 54.0005 131.197 54.281 131.563 54.281C131.928 54.281 132.243 53.992 132.243 53.6095C132.243 53.227 131.928 52.938 131.563 52.938ZM131.563 54.1705C131.257 54.1705 131.01 53.9325 131.01 53.6095C131.01 53.2865 131.248 53.0485 131.563 53.0485C131.877 53.0485 132.107 53.295 132.107 53.6095C132.107 53.924 131.869 54.1705 131.563 54.1705Z" fill="#CAAD59"/>
    <path d="M128.12 26.1885C127.381 26.5455 126.794 26.656 125.987 26.554C125.672 26.5115 125.485 26.503 125.332 26.486C125.239 26.4775 125.154 26.469 125.052 26.452C126.165 25.806 126.378 24.5905 126.378 24.5905C126.378 24.5905 126.998 24.939 128.112 25.1515C128.749 25.279 129.361 25.2535 129.625 25.3725C129.149 25.534 128.783 25.874 128.12 26.18M122.561 22.3125C122.221 22.3975 121.584 22.4315 120.98 22.457C120.292 22.4825 119.518 22.5675 119.348 22.5675C119.025 22.5675 119.076 22.253 119.807 22.134C120.547 22.015 121.643 21.726 122.213 21.1565C122.782 20.587 122.604 19.414 122.825 19.397C123.046 19.38 122.74 20.6125 123.692 20.825C122.74 21.3945 123.19 22.1595 122.544 22.321M117.376 27.387C115.685 28.3645 115.71 29.1465 115.642 29.308C115.574 29.4695 114.894 29.019 114.92 28.696C114.945 28.373 115.03 27.931 115.192 27.217C115.379 26.3585 115.54 25.7805 115.651 25.721C115.761 25.6615 116.611 25.398 117.011 25.1005C117.41 24.803 117.563 24.1315 117.716 24.1315C117.878 24.1315 117.572 25.3045 118.175 25.7805C118.779 26.2565 120.198 26.4435 120.173 26.571C120.156 26.707 119.076 26.4095 117.385 27.387M118.575 38.879C118.447 39.185 117.419 38.5815 114.945 37.043C112.769 35.683 111.851 35.224 111.928 33.8895C111.987 32.98 112.973 32.1385 113.849 31.9515C114.248 31.8665 114.393 31.9345 114.869 32.232C115.464 32.606 115.6 32.776 115.464 32.844C114.75 33.2265 114.189 34.323 114.478 34.9945C115.03 36.2695 118.702 38.5645 118.575 38.8705M112.455 36.3205C112.421 36.4565 110.84 36.805 109.378 37.0345C107.916 37.264 107.389 37.4425 107.406 37.179C107.431 36.9155 108.443 37.0005 109.556 36.4055C110.661 35.8105 110.899 35.054 111.137 35.0285C111.384 34.9945 111.222 35.1135 111.639 35.5555C112.047 35.9975 112.489 36.1845 112.455 36.3205ZM94.8175 20.2385C94.044 20.4425 93.5765 20.026 93.483 19.9325C93.398 19.839 93.466 19.7285 93.6105 19.788C94.027 19.958 94.2055 19.8985 94.2055 19.8985C94.2055 19.8985 94.1205 19.5585 94.2565 19.1845C94.316 19.023 94.4435 18.8615 94.5625 18.7935C94.673 18.717 94.7325 18.8615 94.6645 18.9295C94.605 18.9975 94.5285 19.1335 94.5115 19.3035C94.469 19.652 94.8345 19.737 95.0385 19.55C95.2425 19.363 95.285 19.1165 95.336 18.9465C95.3785 18.7935 95.4975 18.8615 95.5145 18.9805C95.523 19.091 95.591 20.0345 94.8175 20.2385ZM93.041 17.731C92.2675 17.9265 91.8 17.5015 91.715 17.408C91.63 17.3145 91.698 17.204 91.8425 17.272C92.2165 17.442 92.4375 17.391 92.4375 17.391C92.4375 17.391 92.344 16.966 92.4715 16.6685C92.599 16.371 92.973 16.1925 93.0495 16.167C93.194 16.116 93.2365 16.269 93.16 16.2945C93.0835 16.32 92.7945 16.456 92.752 16.8045C92.701 17.153 93.075 17.238 93.279 17.051C93.483 16.864 93.534 16.626 93.585 16.456C93.6275 16.303 93.755 16.371 93.7635 16.49C93.7635 16.6005 93.823 17.544 93.0495 17.7395M133.569 24.6585C133.569 24.6585 133.56 24.6585 133.543 24.6585C133.288 24.4715 132.821 24.276 132.047 23.868C130.475 23.0435 129.803 23.103 129.038 22.933C128.044 22.712 128.316 22.5165 126.811 22.1C125.341 21.692 124.856 21.7345 124.856 21.7345C125.222 20.5785 125.953 21.2245 126.344 21.1395C126.684 21.0715 126.862 20.876 126.845 20.3745C126.828 19.873 127.16 19.3715 127.16 19.3715C127.16 19.3715 127.406 19.295 127.466 19.2525C127.517 19.227 127.517 19.1505 127.466 19.074C127.389 18.938 127.228 18.6745 127.177 18.3685C127.1 17.9435 127.296 17.612 127.219 17.459C125.927 17.0595 123.403 18.258 123.649 17.918C125.647 16.558 128.214 16.643 127.704 16.337C127.007 15.9205 127.16 15.6485 126.242 14.9855C125.766 14.637 125.111 14.552 124.448 14.62C124.584 14.399 124.907 13.7955 124.788 13.498C124.644 13.1325 122.451 13.6425 120.972 13.6935C119.493 13.7445 118.6 13.396 118.6 13.396C118.6 13.396 118.821 13.991 119.841 14.212C120.759 14.416 121.524 14.2545 121.745 14.2375C121.779 14.2375 121.898 14.4415 121.898 14.4415C121.898 14.4415 121.558 14.5775 120.725 14.5775C119.892 14.5775 119.161 14.3055 119.161 14.3055C119.161 14.3055 119.714 14.9515 120.632 15.079C121.618 15.2065 122.213 14.994 122.213 14.994L122.366 15.198C120.98 15.725 119.85 15.079 119.85 15.079C119.85 15.079 120.054 15.555 120.853 15.7165C121.601 15.8695 122.068 15.742 122.128 15.725C121.907 16.0395 121.813 16.405 121.745 16.796C121.677 17.068 121.618 17.374 121.584 17.697C121.354 18.6745 120.3 19.4735 120.453 19.567C120.615 19.6605 122.366 18.7595 122.366 18.7595C122.366 18.7595 122.366 19.941 121.771 20.6975C121.176 21.454 120.436 21.3095 119.408 21.5815C118.847 21.726 118.685 21.8535 118.32 21.811C117.81 21.7515 117.121 21.726 116.484 21.896C115.625 22.1255 114.639 22.7545 114.078 22.8735C113.585 22.984 111.996 23.1285 111.341 23.341L110.857 23.511C110.449 23.6555 110.151 23.7575 109.828 23.783C109.641 23.783 109.412 23.7915 109.148 23.732C108.766 23.6385 108.298 23.5195 107.72 23.5535C107.117 23.5875 106.777 23.6385 105.74 23.919C104.694 24.1995 103.564 24.565 103.028 24.5565C102.229 24.5565 102.017 24.3695 101.371 24.123C101.056 23.9955 100.3 24.0465 99.7645 24.208C99.45 23.97 99.1695 23.7405 99.025 23.5705C98.702 23.188 98.685 22.491 98.226 21.981C97.767 21.471 97.6735 20.8165 97.716 20.366C97.75 19.907 97.8265 19.7795 97.716 19.2695C97.614 18.751 97.2825 18.513 97.2145 18.547C97.1465 18.5725 97.0445 19.074 97.155 19.431C97.3165 19.9495 97.2315 20.4 97.223 20.893C97.223 21.182 97.4015 21.658 97.359 21.658C97.3165 21.658 96.9595 21.3775 96.883 20.8675C96.849 20.672 96.8575 19.5585 96.5855 19.193C96.3135 18.8275 96.2625 18.1475 96.22 17.8925C96.067 16.966 95.8375 16.2605 95.7185 16.32C95.659 16.354 95.608 16.49 95.5825 16.7195C95.5145 17.238 95.591 17.85 95.625 18.207C95.4465 17.918 95.166 17.7735 94.9025 17.9435C94.843 17.9775 94.775 18.037 94.6985 18.0965C94.7665 17.6715 94.792 17.2125 94.792 16.9065C94.792 16.3795 94.605 16.354 94.2905 16.2435C93.976 16.1245 93.9845 16.031 93.823 15.7505C93.653 15.47 93.3895 15.3255 93.126 15.4785C92.8625 15.6315 92.4035 16.116 92.038 16.116C91.6725 16.116 91.562 16.2265 91.341 16.711C91.12 17.187 90.984 17.0255 90.9245 17.391C90.882 17.6545 91.2645 18.7 92.2845 19.04C92.582 19.142 92.871 19.2015 93.1345 19.2355C92.956 19.3545 92.7265 19.5075 92.701 19.907C92.6585 20.536 93.2195 21.403 94.112 21.6665C94.5285 21.7855 95.1745 21.8535 95.6675 21.794C96.373 21.896 96.8575 22.321 97.342 22.678C97.665 22.9075 98.2005 23.545 98.4725 23.8085C98.583 23.9105 99.2545 24.395 99.314 24.4545C99.2715 24.4885 99.229 24.531 99.2035 24.565C99.059 24.5055 98.277 23.9615 98.073 23.783C97.7755 23.528 96.9255 22.559 95.965 22.1595C95.8205 22.1 95.557 22.219 95.1065 22.27C94.6305 22.321 94.2905 22.2445 94.1715 22.2275C94.0015 22.2105 93.908 22.389 93.194 22.627C92.48 22.8735 91.953 23.256 91.766 23.392C91.5875 23.5195 91.698 23.613 91.817 23.647C91.9445 23.681 93.2535 23.97 93.8485 23.63C94.435 23.2985 94.9705 23.0945 95.4295 23.086C95.8885 23.086 96.3475 23.2645 96.8915 23.766C97.4355 24.2675 97.5205 24.1825 97.8435 24.259C98.1665 24.3355 98.719 24.684 99.127 25.024C99.535 25.364 99.6455 25.4235 100.181 25.721C100.716 26.01 103.717 28.067 103.904 28.1435C104.082 28.22 104.286 27.914 104.21 27.829C104.133 27.744 103.938 27.6165 103.887 27.54C103.836 27.4635 103.802 27.2 103.759 27.1235C103.717 27.047 103.292 26.8345 102.807 26.5455C102.442 26.333 102.085 26.0865 101.762 25.8485C102.714 25.738 104.15 25.7635 106.173 25.8315C107.499 25.874 108.655 25.585 109.59 25.585C110.619 25.585 111.401 25.891 112.455 25.8995C114.367 25.8995 114.784 25.8655 114.784 25.8655C114.784 25.8655 114.231 27.999 114.231 29.5545C114.231 30.8295 113.619 30.8975 112.285 31.7475C111.324 32.351 110.984 33.1415 110.984 33.1415C110.959 33.1415 108.46 33.2435 106.471 34.255C104.533 35.2325 104.142 35.3005 104.006 35.36C103.861 35.4195 103.785 35.394 103.785 35.394C103.759 35.377 101.77 34.5185 100.189 34.2975C98.8295 34.1105 97.9795 34.3655 97.733 34.3655C96.2965 34.3655 94.894 34.4165 94.894 34.4165L95.812 33.728C96.0755 33.5665 96.5175 33.2775 96.5515 33.0055C96.611 32.6145 94.4605 31.9515 93.16 31.246C91.8595 30.5405 91.2645 29.7925 91.2645 29.7925C91.2645 29.7925 91.154 30.413 91.919 31.127C92.6075 31.7645 93.3215 32.011 93.5255 32.1045C93.5255 32.1045 93.5255 32.1045 93.534 32.1215V32.3595C93.534 32.3595 93.194 32.3 92.4885 31.892C91.766 31.467 91.273 30.872 91.273 30.872C91.273 30.872 91.4175 31.7135 92.1485 32.283C92.9305 32.895 93.5595 33.0055 93.5595 33.0055L93.5765 33.133V33.2605C92.123 33.014 91.477 31.8835 91.477 31.8835C91.477 31.8835 91.4005 32.3595 92.0125 32.9375C92.4545 33.354 93.0155 33.6855 93.6105 33.8725L93.6275 34.306C93.2705 34.238 92.939 34.119 92.7945 33.9235C92.5905 33.6345 92.2675 33.303 91.9615 33.269C91.29 33.184 90.9075 33.711 90.3975 34.136C89.8875 34.561 89.471 34.3485 88.689 34.629C87.907 34.9095 87.5075 35.819 87.584 36.006C87.6605 36.2015 87.5245 36.244 88.689 35.955C89.828 35.666 89.896 35.6405 91.0265 35.7935C92.1655 35.9465 92.8625 35.632 93.636 35.615C94.86 35.581 94.945 35.8275 97.172 36.312C99.399 36.7965 103.028 37.6805 103.088 37.706C103.147 37.74 103.904 38.1225 105.153 38.0205C106.471 37.91 107.176 38.0545 108.8 37.8335C112.183 37.3745 113.05 36.8645 113.05 36.8645C113.05 36.8645 114.257 37.6805 115.88 38.5985C118.481 40.0775 120.343 40.8935 120.343 40.8935C120.343 40.8935 120.997 43.5285 121.796 44.778C122.213 45.4325 122.842 45.951 122.935 46.053C123.547 46.7585 124.1 47.4045 124.652 48.076C124.533 48.076 124.414 48.093 124.295 48.093C122.816 48.144 121.924 47.7955 121.924 47.7955C121.924 47.7955 122.145 48.3905 123.165 48.6115C124.083 48.8155 124.848 48.654 125.069 48.637C125.103 48.637 125.222 48.8495 125.222 48.8495C125.222 48.8495 124.882 48.9855 124.049 48.9855C123.216 48.9855 122.485 48.7135 122.485 48.7135C122.485 48.7135 123.037 49.3595 123.955 49.487C124.941 49.6145 125.536 49.402 125.536 49.402L125.655 49.5635C125.655 49.5635 125.672 49.5975 125.681 49.6145C124.295 50.133 123.173 49.487 123.173 49.487C123.173 49.487 123.343 49.9375 124.176 50.1245C124.805 50.269 125.298 50.303 125.834 50.15C125.851 50.422 125.732 50.592 125.621 50.83C125.477 51.153 125.222 51.6885 125.341 51.969C125.613 52.581 126.548 52.4705 127.177 52.6915C127.797 52.9125 127.84 53.3715 128.477 53.8985C129.115 54.4255 130.109 54.298 130.228 54.1365C130.347 53.975 130.458 54.06 129.616 53.2185C128.783 52.3855 128.724 52.3515 128.265 51.2975C127.84 50.3115 127.806 50.541 127.075 49.4615C127.262 49.2915 127.33 49.164 127.33 49.164C127.33 49.164 127.874 48.331 127.721 47.957C127.636 47.753 127.032 47.804 126.259 47.8975C126.259 47.8975 125.451 45.2455 124.856 43.4775C124.261 41.7095 123.36 39.865 123.335 39.8055C123.309 39.7375 123.25 39.5335 123.224 39.4315C123.199 39.3295 123.071 38.964 122.833 38.7005C122.595 38.437 121.864 37.876 121.796 37.808C121.72 37.74 121.278 37.1195 120.241 36.0145C119.212 34.9095 117.351 33.3285 117.351 33.3285C117.419 32.878 117.555 32.8015 117.963 32.334C118.371 31.8665 118.906 31.416 119.246 31.1865C120.623 30.294 121.881 28.968 122.391 28.3645C122.264 28.322 122.162 28.254 122.128 28.1775L122.102 28.118V28.0585C122.102 28.0585 122.136 27.2935 123.054 27.0555C123.182 27.0215 123.284 26.996 123.377 26.9705C123.377 26.9705 123.428 26.962 123.505 26.9365C123.292 26.809 123.241 26.656 123.275 26.673C123.318 26.69 123.794 26.7835 123.989 26.792H124.023C124.023 26.792 124.04 26.792 124.049 26.792C124.363 26.809 124.695 26.8685 124.397 26.962C123.879 27.115 123.853 27.098 123.114 27.2935C122.374 27.489 122.357 28.0585 122.357 28.0585C122.4 28.1435 122.978 28.254 123.879 28.2115C124.771 28.169 125.749 27.659 126.429 27.557C127.602 27.3785 129.548 27.88 131.112 27.268C132.124 26.8685 132.362 26.418 132.727 26.2055C133.093 25.993 133.535 25.721 133.671 25.534C133.807 25.347 133.858 24.871 133.526 24.6755" fill="#CAAD59"/>
    <path d="M89.6069 21.233C90.0999 21.233 90.2614 21.097 90.2614 21.097C90.2614 21.097 90.0319 20.7825 90.0149 20.3575C90.0149 20.162 90.0744 19.9495 90.1594 19.8305C90.2444 19.703 90.3549 19.8305 90.3209 19.924C90.2869 20.0175 90.2699 20.1875 90.3209 20.3745C90.4229 20.7485 90.8309 20.672 90.9584 20.3915C91.0859 20.1195 91.0264 19.856 91.0009 19.6605C90.9839 19.4905 91.1284 19.5075 91.1879 19.618C91.2474 19.7285 91.7149 20.6465 91.0179 21.182C90.3209 21.7175 89.6749 21.4965 89.5389 21.437C89.4114 21.3775 89.4284 21.2415 89.6069 21.2415M88.8929 21.8025C88.9354 21.998 89.2074 22.2105 89.6494 22.355C89.7854 22.406 89.6919 22.7035 90.0744 22.746C91.3579 22.8905 93.2619 22.4655 93.6274 22.1935C93.8144 22.0575 93.6869 21.743 93.2959 21.454C92.8709 21.1395 92.3524 20.74 92.0124 19.907C91.6724 19.074 91.3239 18.955 91.0519 18.8615C90.8479 18.7935 90.5164 18.819 90.0659 19.1845C89.6409 19.533 89.2669 19.5075 89.0374 19.975C88.8079 20.4425 89.0799 20.7145 89.0459 21.0035C89.0119 21.2925 88.8164 21.488 88.8844 21.8025" fill="#CAAD59"/>
    <path d="M122.638 50.813C121.014 51.918 119.221 52.785 117.3 53.3545H117.283C117.155 53.4055 117.087 53.55 117.13 53.6775C117.172 53.805 117.317 53.873 117.444 53.8305H117.461C119.425 53.2355 121.261 52.3515 122.91 51.221C123.02 51.1445 123.054 50.9915 122.978 50.8725C122.901 50.762 122.748 50.728 122.629 50.8045" fill="#CAAD59"/>
  </g>
  <defs>
    <clipPath id="clip0_1396_2798">
      <rect width="170" height="85" fill="white"/>
    </clipPath>
  </defs>
</svg>
