<?xml version="1.0" encoding="UTF-8" standalone="no"?>
<!DOCTYPE svg PUBLIC "-//W3C//DTD SVG 1.1//EN" "http://www.w3.org/Graphics/SVG/1.1/DTD/svg11.dtd">
<svg xmlns="http://www.w3.org/2000/svg" version="1.1" viewBox="0.00 0.00 499.00 499.00">
<g stroke-width="2.00" fill="none" stroke-linecap="butt">
<path stroke="#40b98e" vector-effect="non-scaling-stroke" d="
  M 236.25 103.79
  Q 241.78 102.55 245.49 103.48
  C 246.96 103.85 247.51 106.13 248.67 107.02
  C 253.42 110.67 271.78 108.95 278.17 108.75
  C 285.59 108.51 287.95 105.99 287.23 98.40
  C 286.77 93.52 283.44 92.76 278.84 92.65
  Q 257.86 92.13 252.05 92.55
  Q 248.30 92.83 246.78 96.57
  Q 246.58 97.06 246.08 96.90
  L 245.50 96.71"
/>
<path stroke="#e5e09f" vector-effect="non-scaling-stroke" d="
  M 294.50 119.79
  Q 295.25 119.89 295.63 120.42
  Q 295.79 120.65 295.69 120.69
  Q 295.57 120.73 295.44 120.76
  Q 295.15 120.85 295.40 121.02
  Q 297.78 122.66 297.87 125.36
  C 297.97 128.18 301.25 129.05 303.49 129.65
  Q 303.63 129.69 303.52 129.79
  L 303.21 130.06
  Q 303.00 130.25 303.28 130.24
  Q 303.93 130.22 304.50 130.46"
/>
<path stroke="#aefab1" vector-effect="non-scaling-stroke" d="
  M 222.74 165.51
  Q 221.91 166.01 222.05 164.30
  Q 222.01 168.00 221.99 171.71
  Q 221.98 172.22 221.61 171.88
  Q 219.00 169.50 215.36 169.94
  Q 214.82 170.01 214.54 169.54
  L 214.33 169.18
  Q 213.90 168.45 214.01 169.35
  Q 214.08 169.93 213.31 169.69
  Q 212.95 169.58 212.95 169.21
  Q 213.12 156.14 212.95 143.05
  Q 212.84 134.85 212.75 143.06
  L 212.54 163.00"
/>
<path stroke="#feac9e" vector-effect="non-scaling-stroke" d="
  M 433.21 275.00
  C 432.79 272.12 430.71 267.86 427.28 267.59
  Q 426.80 267.55 426.78 268.03
  C 426.75 268.70 423.94 271.39 423.46 272.98
  Q 423.14 274.03 423.27 272.99
  Q 423.35 272.30 422.79 272.00"
/>
<path stroke="#77f7c4" vector-effect="non-scaling-stroke" d="
  M 222.70 270.75
  Q 221.91 265.83 222.36 260.83
  Q 222.40 260.34 222.18 260.78
  Q 222.06 261.01 222.00 261.28
  Q 221.75 262.41 221.75 261.25
  L 221.75 260.81
  Q 221.75 260.69 221.67 260.78
  L 220.01 262.73
  Q 219.70 263.09 219.22 263.02
  L 214.67 262.31
  Q 214.26 262.24 214.20 261.84
  Q 214.02 260.59 213.32 259.59
  Q 213.03 259.18 213.04 258.68
  Q 213.14 253.78 212.88 248.74
  Q 212.72 245.74 212.70 248.75
  L 212.54 277.25"
/>
<path stroke="#cfb8a6" vector-effect="non-scaling-stroke" d="
  M 316.50 308.54
  Q 313.14 308.38 310.82 310.45
  Q 310.47 310.77 310.49 311.24
  C 310.57 313.29 311.45 318.03 309.80 320.26
  Q 309.49 320.69 309.99 320.86
  L 311.75 321.46"
/>
<path stroke="#f09ea1" vector-effect="non-scaling-stroke" d="
  M 336.25 321.46
  L 337.01 321.21
  Q 337.37 321.09 336.99 321.06
  L 332.13 320.69
  Q 331.62 320.66 331.62 320.14
  C 331.62 316.20 333.65 310.38 338.03 309.46
  Q 338.20 309.43 338.06 309.32
  L 337.56 308.96
  Q 337.20 308.69 337.65 308.69
  L 359.75 308.54"
/>
<path stroke="#8ddbba" vector-effect="non-scaling-stroke" d="
  M 282.55 308.53
  Q 282.45 312.91 280.76 317.04
  Q 280.50 317.67 280.50 316.98
  L 280.50 316.03
  Q 280.50 315.68 280.40 316.01
  L 278.98 320.71
  Q 278.81 321.25 279.38 321.27
  L 285.50 321.46"
/>
<path stroke="#d684a9" vector-effect="non-scaling-stroke" d="
  M 86.75 213.29
  L 85.55 214.25
  Q 85.16 214.56 85.22 215.06
  C 85.44 216.68 84.85 218.01 84.86 219.44
  C 85.14 249.35 84.55 279.27 85.30 309.17
  C 85.31 309.56 85.53 309.86 85.81 310.08
  Q 85.88 310.14 85.81 310.20
  L 85.50 310.46"
/>
<path stroke="#f08ca6" vector-effect="non-scaling-stroke" d="
  M 102.50 213.21
  L 96.64 213.45
  Q 96.11 213.48 95.68 213.79
  L 94.05 215.00
  Q 93.60 215.34 93.59 215.90
  C 92.98 246.69 94.37 275.05 94.24 292.69
  Q 94.17 302.78 94.50 309.06
  Q 94.53 309.68 95.15 309.76
  Q 96.35 309.93 95.52 310.45"
/>
<path stroke="#f1a9a3" vector-effect="non-scaling-stroke" d="
  M 236.54 345.00
  C 196.01 344.05 160.13 345.48 123.04 344.50"
/>
<path stroke="#feac9e" vector-effect="non-scaling-stroke" d="
  M 123.04 344.50
  Q 121.77 341.61 119.69 340.56
  Q 105.24 333.28 90.79 326.00"
/>
<path stroke="#f1a9a3" vector-effect="non-scaling-stroke" d="
  M 90.79 326.00
  L 82.02 321.55
  Q 81.64 321.36 81.51 320.95
  L 81.23 320.07"
/>
<path stroke="#f08ca6" vector-effect="non-scaling-stroke" d="
  M 123.04 344.50
  L 119.74 350.20"
/>
<path stroke="#e387a4" vector-effect="non-scaling-stroke" d="
  M 119.74 350.20
  L 117.25 355.51"
/>
<path stroke="#d884a6" vector-effect="non-scaling-stroke" d="
  M 117.25 355.51
  Q 116.11 360.53 112.25 361.46"
/>
<path stroke="#d684a9" vector-effect="non-scaling-stroke" d="
  M 234.56 349.72
  Q 229.54 350.10 216.50 350.18
  Q 152.83 350.58 119.74 350.20"
/>
<path stroke="#f08ca6" vector-effect="non-scaling-stroke" d="
  M 90.79 326.00
  Q 89.78 329.24 90.00 332.65
  Q 90.03 333.17 89.65 333.52
  Q 89.03 334.09 89.00 334.96"
/>
<path stroke="#be7ca9" vector-effect="non-scaling-stroke" d="
  M 230.71 357.25
  C 229.82 356.18 229.09 355.54 227.58 355.53
  C 210.23 355.52 192.68 355.10 175.57 355.20
  Q 146.44 355.37 117.25 355.51"
/>
<path stroke="#f1a9a3" vector-effect="non-scaling-stroke" d="
  M 402.96 374.00
  L 38.89 374.34
  Q 38.56 374.34 38.51 374.02
  Q 38.46 373.74 38.29 373.75"
/>
<path stroke="#d684a9" vector-effect="non-scaling-stroke" d="
  M 402.97 378.65
  L 231.76 378.33
  Q 231.40 378.33 231.68 378.49
  Q 231.78 378.55 231.94 378.49
  Q 169.50 378.58 107.06 378.45
  C 84.47 378.41 61.93 378.88 39.22 378.88
  A 0.69 0.68 87.2 0 1 38.54 378.26
  L 38.21 374.75"
/>
<path stroke="#e4a3a1" vector-effect="non-scaling-stroke" d="
  M 465.50 374.04
  Q 439.39 374.59 413.29 374.00"
/>
<path stroke="#f1a9a3" vector-effect="non-scaling-stroke" d="
  M 315.50 362.04
  Q 312.49 362.72 313.14 365.55
  Q 313.26 366.07 312.74 366.20
  L 311.75 366.46"
/>
<path stroke="#82c49e" stroke-opacity="0.792" vector-effect="non-scaling-stroke" d="
  M 356.25 136.79
  L 365.25 137.71"
/>
<path stroke="#77f7c4" vector-effect="non-scaling-stroke" d="
  M 409.03 222.83
  C 408.77 212.49 409.21 202.06 408.01 192.49
  Q 406.48 180.39 403.49 173.76
  Q 401.29 168.87 395.59 162.10
  C 392.90 158.91 389.02 157.00 385.75 154.11
  C 383.48 152.11 380.80 151.17 378.17 149.82
  C 372.98 147.17 365.53 145.19 360.57 145.07
  Q 344.01 144.67 291.24 145.10
  Q 283.71 145.16 279.35 146.22
  C 273.05 147.76 264.57 149.91 259.93 154.95
  C 259.13 155.83 257.54 156.38 256.96 156.97
  Q 248.14 165.97 243.90 173.69
  C 239.10 182.42 238.36 191.69 238.25 203.03
  Q 238.09 218.82 237.59 234.62
  C 237.23 245.90 237.88 253.36 242.17 262.72
  C 244.59 267.98 249.31 273.31 252.93 277.31
  C 258.96 283.95 264.24 286.30 271.23 290.03
  Q 274.76 291.91 280.57 292.55
  C 293.46 293.95 306.69 293.81 319.72 293.28
  C 333.07 292.73 346.26 293.95 359.51 293.44
  C 367.44 293.14 373.22 291.56 379.93 288.21
  C 385.85 285.25 389.49 282.97 393.89 278.39
  C 406.96 264.80 408.94 251.04 408.54 233.06
  C 408.47 229.85 409.12 226.30 409.03 222.83"
/>
<path stroke="#4df9d4" vector-effect="non-scaling-stroke" d="
  M 377.89 155.79
  Q 375.97 154.56 373.74 153.75
  C 367.85 151.62 362.57 150.46 355.96 150.42
  C 340.78 150.35 325.78 150.77 310.44 150.28
  C 300.34 149.96 289.33 148.94 281.90 150.86
  C 278.48 151.75 274.06 152.04 270.96 153.94
  Q 267.51 156.06 264.07 158.17
  C 258.40 161.65 252.03 170.21 249.37 175.78
  C 247.92 178.81 246.10 181.65 245.60 184.98
  C 243.07 201.68 244.85 219.61 244.00 236.59
  Q 243.51 246.30 246.61 255.52
  C 247.68 258.72 250.09 261.46 251.76 264.57
  Q 253.63 268.07 255.44 269.98
  Q 261.25 276.11 268.19 280.93
  C 270.03 282.21 272.57 283.00 274.96 284.25
  Q 279.47 286.61 287.25 287.18
  Q 297.94 287.97 308.64 287.77
  C 313.57 287.67 318.37 288.33 323.27 288.67
  C 329.99 289.13 337.02 288.50 343.96 288.12
  C 346.49 287.99 350.36 287.15 354.18 287.31
  Q 366.64 287.82 377.47 281.97
  C 389.10 275.69 398.05 264.34 400.94 251.56
  Q 402.04 246.71 402.03 240.35
  Q 402.01 215.85 401.24 191.35
  C 400.86 179.01 393.22 166.09 383.30 158.86
  C 381.73 157.72 379.71 156.97 377.89 155.79"
/>
<path stroke="#65fdd0" vector-effect="non-scaling-stroke" d="
  M 316.50 156.71
  Q 312.52 156.70 308.75 157.96"
/>
<path stroke="#76ffd1" vector-effect="non-scaling-stroke" d="
  M 308.75 157.96
  L 304.75 159.04"
/>
<path stroke="#65fdd0" vector-effect="non-scaling-stroke" d="
  M 304.75 159.04
  Q 302.00 159.24 299.49 160.28
  Q 276.47 169.85 266.54 191.81
  C 263.31 198.98 262.18 206.97 261.77 214.87
  C 261.64 217.44 262.49 219.71 262.96 222.25"
/>
<path stroke="#76ffd1" vector-effect="non-scaling-stroke" d="
  M 262.96 222.25
  Q 263.00 222.38 263.04 222.50"
/>
<path stroke="#65fdd0" vector-effect="non-scaling-stroke" d="
  M 263.04 222.50
  L 262.84 230.93
  Q 262.83 231.47 263.34 231.63
  C 267.20 232.82 272.01 232.13 275.98 232.46
  C 282.55 233.00 287.21 233.05 292.89 233.26
  C 294.33 233.32 296.08 234.69 297.26 232.54
  Q 297.49 232.10 297.99 232.10
  Q 306.40 232.10 314.80 231.47
  C 317.43 231.27 320.66 231.71 323.64 231.14
  C 329.85 229.96 336.71 231.83 343.00 230.94"
/>
<path stroke="#76ffd1" vector-effect="non-scaling-stroke" d="
  M 343.00 230.94
  Q 360.31 232.72 379.94 231.64
  Q 381.39 231.56 382.40 231.33
  Q 382.96 231.21 383.04 230.64
  C 384.10 223.34 385.61 211.09 383.63 204.09
  C 382.95 201.69 382.73 198.94 382.05 196.90
  C 374.65 174.69 354.95 159.46 331.75 156.96"
/>
<path stroke="#4df9d4" vector-effect="non-scaling-stroke" d="
  M 331.75 156.96
  Q 324.15 154.98 316.50 156.71"
/>
<path stroke="#89f9c5" vector-effect="non-scaling-stroke" d="
  M 331.75 156.96
  L 327.50 157.04"
/>
<path stroke="#77f7c4" vector-effect="non-scaling-stroke" d="
  M 327.50 157.04
  L 316.50 156.71"
/>
<path stroke="#a1fdc1" vector-effect="non-scaling-stroke" d="
  M 343.00 230.94
  Q 339.55 229.79 335.92 229.84
  Q 331.26 229.91 329.97 229.79
  Q 326.97 229.49 323.97 229.23
  Q 323.47 229.19 323.01 229.39
  C 320.47 230.51 319.89 228.98 317.87 228.73
  C 316.12 228.51 314.44 229.32 313.05 229.24
  C 311.25 229.13 309.64 228.53 307.88 228.58
  Q 290.94 229.13 274.00 228.96
  Q 272.29 228.94 270.97 229.95
  Q 270.59 230.24 270.11 230.27
  L 265.58 230.57
  A 0.87 0.86 -0.6 0 1 264.66 229.68
  Q 264.82 225.77 263.04 222.50"
/>
<path stroke="#a1fdc1" vector-effect="non-scaling-stroke" d="
  M 262.96 222.25
  Q 263.38 210.07 264.03 206.25
  C 264.93 200.93 268.06 194.69 270.71 189.05
  Q 272.32 185.60 274.84 182.64
  Q 276.48 180.71 275.09 182.82
  Q 274.33 183.98 273.61 185.15
  Q 271.43 188.75 273.98 185.40
  Q 276.23 182.45 278.19 179.31
  C 282.01 173.19 286.68 167.47 294.10 164.84
  Q 294.57 164.67 294.83 164.25
  C 295.42 163.28 298.56 162.64 299.73 161.69
  Q 300.10 161.39 300.59 161.36
  Q 303.14 161.21 304.75 159.04"
/>
<path stroke="#a1fdc1" vector-effect="non-scaling-stroke" d="
  M 327.50 157.04
  L 308.75 157.96"
/>
<path stroke="#bffcb2" vector-effect="non-scaling-stroke" d="
  M 373.69 189.53
  Q 371.36 183.64 366.83 179.33
  C 363.43 176.09 360.61 172.71 356.37 170.34
  C 352.48 168.17 349.64 165.83 345.29 164.33
  Q 327.70 158.30 309.60 162.15
  C 308.16 162.45 306.94 163.44 304.98 162.87
  Q 304.55 162.74 304.22 163.03
  C 302.89 164.17 301.24 163.44 299.79 165.13
  Q 299.48 165.50 299.01 165.62
  C 295.86 166.46 293.49 168.80 291.46 170.01
  C 289.25 171.33 287.31 172.15 285.43 173.98
  Q 281.46 177.84 277.49 181.73
  Q 277.13 182.08 277.07 182.58
  Q 276.92 183.84 275.98 184.98
  C 272.22 189.55 269.85 195.78 267.31 201.28
  Q 265.15 205.96 265.20 213.84
  C 265.21 215.56 266.23 217.22 265.32 219.35
  Q 265.11 219.83 265.52 220.16
  C 269.23 223.16 272.04 221.78 275.80 221.89
  C 286.82 222.24 297.94 221.63 308.91 222.37
  Q 313.35 222.68 317.80 222.52
  C 335.80 221.89 353.84 221.88 371.85 221.59
  C 373.99 221.55 376.25 222.28 378.72 221.91
  Q 379.24 221.83 379.56 221.41
  C 382.25 217.85 382.18 210.77 381.74 206.91
  Q 381.73 206.81 381.63 206.83
  Q 381.48 206.87 381.38 206.92
  Q 381.34 206.93 381.34 206.89
  C 380.73 203.17 380.47 199.32 378.11 196.18
  Q 375.82 193.14 374.52 189.47
  Q 374.43 189.22 374.34 189.48
  Q 374.30 189.60 374.26 189.73
  Q 374.21 189.89 374.05 189.85
  Q 373.79 189.78 373.69 189.53"
/>
<path stroke="#e0fcac" vector-effect="non-scaling-stroke" d="
  M 278.37 184.85
  Q 268.86 196.51 267.24 212.41
  A 1.68 1.67 -65.7 0 0 267.77 213.82
  Q 270.45 216.29 273.52 214.28
  Q 273.98 213.99 274.52 213.99
  Q 279.86 213.99 285.19 214.45
  C 286.98 214.60 288.51 213.92 290.43 214.06
  Q 293.86 214.30 293.95 214.30
  C 302.55 214.17 311.33 214.76 319.69 214.49
  C 331.78 214.10 343.84 214.51 355.92 214.23
  Q 361.67 214.10 367.40 214.32
  C 370.34 214.44 374.49 213.87 377.81 214.54
  A 1.55 1.55 0.0 0 0 379.66 213.10
  Q 379.96 207.09 378.29 202.67
  C 377.04 199.36 374.35 194.92 374.28 191.44
  Q 374.26 190.94 373.96 190.54
  Q 366.33 180.41 356.42 172.49
  C 355.47 171.73 355.07 170.28 353.17 170.11
  Q 352.70 170.07 352.34 169.77
  C 346.65 165.04 335.85 162.49 329.24 162.23
  C 321.41 161.92 312.81 162.24 305.42 165.08
  C 303.56 165.80 300.37 166.13 299.07 167.59
  C 297.13 169.76 292.98 170.31 290.56 172.66
  C 288.85 174.32 286.97 174.99 285.43 176.71
  Q 282.73 179.74 279.66 182.41
  C 279.15 182.86 279.01 184.06 278.37 184.85"
/>
<path stroke="#c1789a" stroke-opacity="0.941" vector-effect="non-scaling-stroke" d="
  M 151.14 272.77
  Q 149.74 269.94 149.94 266.65
  Q 149.97 266.12 150.43 265.88
  L 152.00 265.04"
/>
<path stroke="#c8a487" stroke-opacity="0.792" vector-effect="non-scaling-stroke" d="
  M 211.7516 333.4997
  A 2.36 2.36 0.0 0 0 209.3468 331.1854
  L 202.5680 331.3156
  A 2.36 2.36 0.0 0 0 200.2538 333.7205
  L 200.2684 334.4803
  A 2.36 2.36 0.0 0 0 202.6732 336.7946
  L 209.4520 336.6644
  A 2.36 2.36 0.0 0 0 211.7662 334.2595
  L 211.7516 333.4997"
/>
</g>
<path fill="#217476" d="
  M 236.25 103.79
  Q 241.78 102.55 245.49 103.48
  C 246.96 103.85 247.51 106.13 248.67 107.02
  C 253.42 110.67 271.78 108.95 278.17 108.75
  C 285.59 108.51 287.95 105.99 287.23 98.40
  C 286.77 93.52 283.44 92.76 278.84 92.65
  Q 257.86 92.13 252.05 92.55
  Q 248.30 92.83 246.78 96.57
  Q 246.58 97.06 246.08 96.90
  L 245.50 96.71
  C 249.61 79.97 279.21 81.21 287.30 93.70
  C 292.20 101.27 288.66 110.19 279.98 112.68
  Q 278.21 113.19 276.01 112.54
  Q 266.68 109.80 259.01 110.47
  Q 249.54 111.30 244.29 104.89
  Q 243.97 104.49 243.45 104.45
  L 236.25 103.79
  Z"
/>
<path fill="#5ffea6" d="
  M 236.25 103.79
  Q 218.65 103.23 211.76 104.28
  C 190.83 107.46 182.80 123.41 182.52 142.90
  C 182.19 164.93 181.96 187.33 182.31 209.44
  Q 182.34 211.26 180.52 211.14
  L 177.66 210.94
  A 0.99 0.99 0.0 0 1 176.73 209.96
  Q 176.31 175.08 176.51 142.50
  C 176.66 117.71 190.88 97.91 217.32 97.62
  Q 235.81 97.42 245.50 96.71
  L 246.08 96.90
  Q 246.58 97.06 246.78 96.57
  Q 248.30 92.83 252.05 92.55
  Q 257.86 92.13 278.84 92.65
  C 283.44 92.76 286.77 93.52 287.23 98.40
  C 287.95 105.99 285.59 108.51 278.17 108.75
  C 271.78 108.95 253.42 110.67 248.67 107.02
  C 247.51 106.13 246.96 103.85 245.49 103.48
  Q 241.78 102.55 236.25 103.79
  Z"
/>
<path fill="#ccf8a2" d="
  M 294.50 119.79
  Q 295.25 119.89 295.63 120.42
  Q 295.79 120.65 295.69 120.69
  Q 295.57 120.73 295.44 120.76
  Q 295.15 120.85 295.40 121.02
  Q 297.78 122.66 297.87 125.36
  C 297.97 128.18 301.25 129.05 303.49 129.65
  Q 303.63 129.69 303.52 129.79
  L 303.21 130.06
  Q 303.00 130.25 303.28 130.24
  Q 303.93 130.22 304.50 130.46
  Q 247.58 129.99 232.00 130.27
  C 224.05 130.41 222.42 136.64 222.54 143.70
  Q 222.72 154.60 222.74 165.51
  Q 221.91 166.01 222.05 164.30
  Q 222.01 168.00 221.99 171.71
  Q 221.98 172.22 221.61 171.88
  Q 219.00 169.50 215.36 169.94
  Q 214.82 170.01 214.54 169.54
  L 214.33 169.18
  Q 213.90 168.45 214.01 169.35
  Q 214.08 169.93 213.31 169.69
  Q 212.95 169.58 212.95 169.21
  Q 213.12 156.14 212.95 143.05
  Q 212.84 134.85 212.75 143.06
  L 212.54 163.00
  Q 212.46 149.12 212.51 135.23
  C 212.54 124.54 217.64 120.08 228.05 119.67
  C 236.38 119.34 246.86 119.67 252.98 119.66
  Q 273.74 119.62 294.50 119.79
  Z"
/>
<path fill="#fec89b" d="
  M 433.21 275.00
  C 432.79 272.12 430.71 267.86 427.28 267.59
  Q 426.80 267.55 426.78 268.03
  C 426.75 268.70 423.94 271.39 423.46 272.98
  Q 423.14 274.03 423.27 272.99
  Q 423.35 272.30 422.79 272.00
  Q 422.63 207.06 422.87 142.12
  C 422.90 134.19 420.37 130.54 411.87 130.52
  C 376.09 130.41 340.26 131.05 304.50 130.46
  Q 303.93 130.22 303.28 130.24
  Q 303.00 130.25 303.21 130.06
  L 303.52 129.79
  Q 303.63 129.69 303.49 129.65
  C 301.25 129.05 297.97 128.18 297.87 125.36
  Q 297.78 122.66 295.40 121.02
  Q 295.15 120.85 295.44 120.76
  Q 295.57 120.73 295.69 120.69
  Q 295.79 120.65 295.63 120.42
  Q 295.25 119.89 294.50 119.79
  C 297.32 119.88 300.47 119.52 302.92 119.52
  Q 359.09 119.48 415.25 119.55
  C 427.82 119.56 433.23 123.68 433.24 136.53
  Q 433.29 205.77 433.21 275.00
  Z"
/>
<path fill="#8ffbc0" d="
  M 356.25 136.79
  L 365.25 137.71
  C 389.22 141.94 408.63 160.16 414.27 183.76
  Q 415.51 188.94 415.50 197.34
  C 415.47 213.12 415.91 229.01 415.47 244.77
  C 414.73 271.40 394.29 293.76 368.90 299.41
  Q 362.68 300.79 350.01 300.76
  Q 323.50 300.70 296.99 300.78
  Q 283.05 300.82 277.09 299.52
  C 254.81 294.63 236.63 276.13 231.52 254.05
  Q 230.20 248.39 230.24 238.33
  Q 230.33 217.53 230.42 196.73
  Q 230.53 172.02 248.24 154.49
  Q 265.28 137.62 289.07 137.04
  Q 312.01 136.47 356.25 136.79
  Z
  M 409.03 222.83
  C 408.77 212.49 409.21 202.06 408.01 192.49
  Q 406.48 180.39 403.49 173.76
  Q 401.29 168.87 395.59 162.10
  C 392.90 158.91 389.02 157.00 385.75 154.11
  C 383.48 152.11 380.80 151.17 378.17 149.82
  C 372.98 147.17 365.53 145.19 360.57 145.07
  Q 344.01 144.67 291.24 145.10
  Q 283.71 145.16 279.35 146.22
  C 273.05 147.76 264.57 149.91 259.93 154.95
  C 259.13 155.83 257.54 156.38 256.96 156.97
  Q 248.14 165.97 243.90 173.69
  C 239.10 182.42 238.36 191.69 238.25 203.03
  Q 238.09 218.82 237.59 234.62
  C 237.23 245.90 237.88 253.36 242.17 262.72
  C 244.59 267.98 249.31 273.31 252.93 277.31
  C 258.96 283.95 264.24 286.30 271.23 290.03
  Q 274.76 291.91 280.57 292.55
  C 293.46 293.95 306.69 293.81 319.72 293.28
  C 333.07 292.73 346.26 293.95 359.51 293.44
  C 367.44 293.14 373.22 291.56 379.93 288.21
  C 385.85 285.25 389.49 282.97 393.89 278.39
  C 406.96 264.80 408.94 251.04 408.54 233.06
  C 408.47 229.85 409.12 226.30 409.03 222.83
  Z"
/>
<path fill="#6c6665" fill-opacity="0.584" d="
  M 356.25 136.79
  Q 360.88 136.24 365.25 137.71
  L 356.25 136.79
  Z"
/>
<path fill="#8ffbc0" d="
  M 222.74 165.51
  L 222.70 270.75
  Q 221.91 265.83 222.36 260.83
  Q 222.40 260.34 222.18 260.78
  Q 222.06 261.01 222.00 261.28
  Q 221.75 262.41 221.75 261.25
  L 221.75 260.81
  Q 221.75 260.69 221.67 260.78
  L 220.01 262.73
  Q 219.70 263.09 219.22 263.02
  L 214.67 262.31
  Q 214.26 262.24 214.20 261.84
  Q 214.02 260.59 213.32 259.59
  Q 213.03 259.18 213.04 258.68
  Q 213.14 253.78 212.88 248.74
  Q 212.72 245.74 212.70 248.75
  L 212.54 277.25
  L 212.54 163.00
  L 212.75 143.06
  Q 212.84 134.85 212.95 143.05
  Q 213.12 156.14 212.95 169.21
  Q 212.95 169.58 213.31 169.69
  Q 214.08 169.93 214.01 169.35
  Q 213.90 168.45 214.33 169.18
  L 214.54 169.54
  Q 214.82 170.01 215.36 169.94
  Q 219.00 169.50 221.61 171.88
  Q 221.98 172.22 221.99 171.71
  Q 222.01 168.00 222.05 164.30
  Q 221.91 166.01 222.74 165.51
  Z"
/>
<path fill="#5ff3c8" d="
  M 409.03 222.83
  C 409.12 226.30 408.47 229.85 408.54 233.06
  C 408.94 251.04 406.96 264.80 393.89 278.39
  C 389.49 282.97 385.85 285.25 379.93 288.21
  C 373.22 291.56 367.44 293.14 359.51 293.44
  C 346.26 293.95 333.07 292.73 319.72 293.28
  C 306.69 293.81 293.46 293.95 280.57 292.55
  Q 274.76 291.91 271.23 290.03
  C 264.24 286.30 258.96 283.95 252.93 277.31
  C 249.31 273.31 244.59 267.98 242.17 262.72
  C 237.88 253.36 237.23 245.90 237.59 234.62
  Q 238.09 218.82 238.25 203.03
  C 238.36 191.69 239.10 182.42 243.90 173.69
  Q 248.14 165.97 256.96 156.97
  C 257.54 156.38 259.13 155.83 259.93 154.95
  C 264.57 149.91 273.05 147.76 279.35 146.22
  Q 283.71 145.16 291.24 145.10
  Q 344.01 144.67 360.57 145.07
  C 365.53 145.19 372.98 147.17 378.17 149.82
  C 380.80 151.17 383.48 152.11 385.75 154.11
  C 389.02 157.00 392.90 158.91 395.59 162.10
  Q 401.29 168.87 403.49 173.76
  Q 406.48 180.39 408.01 192.49
  C 409.21 202.06 408.77 212.49 409.03 222.83
  Z
  M 377.89 155.79
  Q 375.97 154.56 373.74 153.75
  C 367.85 151.62 362.57 150.46 355.96 150.42
  C 340.78 150.35 325.78 150.77 310.44 150.28
  C 300.34 149.96 289.33 148.94 281.90 150.86
  C 278.48 151.75 274.06 152.04 270.96 153.94
  Q 267.51 156.06 264.07 158.17
  C 258.40 161.65 252.03 170.21 249.37 175.78
  C 247.92 178.81 246.10 181.65 245.60 184.98
  C 243.07 201.68 244.85 219.61 244.00 236.59
  Q 243.51 246.30 246.61 255.52
  C 247.68 258.72 250.09 261.46 251.76 264.57
  Q 253.63 268.07 255.44 269.98
  Q 261.25 276.11 268.19 280.93
  C 270.03 282.21 272.57 283.00 274.96 284.25
  Q 279.47 286.61 287.25 287.18
  Q 297.94 287.97 308.64 287.77
  C 313.57 287.67 318.37 288.33 323.27 288.67
  C 329.99 289.13 337.02 288.50 343.96 288.12
  C 346.49 287.99 350.36 287.15 354.18 287.31
  Q 366.64 287.82 377.47 281.97
  C 389.10 275.69 398.05 264.34 400.94 251.56
  Q 402.04 246.71 402.03 240.35
  Q 402.01 215.85 401.24 191.35
  C 400.86 179.01 393.22 166.09 383.30 158.86
  C 381.73 157.72 379.71 156.97 377.89 155.79
  Z"
/>
<path fill="#3affdf" d="
  M 377.89 155.79
  C 379.71 156.97 381.73 157.72 383.30 158.86
  C 393.22 166.09 400.86 179.01 401.24 191.35
  Q 402.01 215.85 402.03 240.35
  Q 402.04 246.71 400.94 251.56
  C 398.05 264.34 389.10 275.69 377.47 281.97
  Q 366.64 287.82 354.18 287.31
  C 350.36 287.15 346.49 287.99 343.96 288.12
  C 337.02 288.50 329.99 289.13 323.27 288.67
  C 318.37 288.33 313.57 287.67 308.64 287.77
  Q 297.94 287.97 287.25 287.18
  Q 279.47 286.61 274.96 284.25
  C 272.57 283.00 270.03 282.21 268.19 280.93
  Q 261.25 276.11 255.44 269.98
  Q 253.63 268.07 251.76 264.57
  C 250.09 261.46 247.68 258.72 246.61 255.52
  Q 243.51 246.30 244.00 236.59
  C 244.85 219.61 243.07 201.68 245.60 184.98
  C 246.10 181.65 247.92 178.81 249.37 175.78
  C 252.03 170.21 258.40 161.65 264.07 158.17
  Q 267.51 156.06 270.96 153.94
  C 274.06 152.04 278.48 151.75 281.90 150.86
  C 289.33 148.94 300.34 149.96 310.44 150.28
  C 325.78 150.77 340.78 150.35 355.96 150.42
  C 362.57 150.46 367.85 151.62 373.74 153.75
  Q 375.97 154.56 377.89 155.79
  Z
  M 316.50 156.71
  Q 312.52 156.70 308.75 157.96
  L 304.75 159.04
  Q 302.00 159.24 299.49 160.28
  Q 276.47 169.85 266.54 191.81
  C 263.31 198.98 262.18 206.97 261.77 214.87
  C 261.64 217.44 262.49 219.71 262.96 222.25
  Q 263.00 222.38 263.04 222.50
  L 262.84 230.93
  Q 262.83 231.47 263.34 231.63
  C 267.20 232.82 272.01 232.13 275.98 232.46
  C 282.55 233.00 287.21 233.05 292.89 233.26
  C 294.33 233.32 296.08 234.69 297.26 232.54
  Q 297.49 232.10 297.99 232.10
  Q 306.40 232.10 314.80 231.47
  C 317.43 231.27 320.66 231.71 323.64 231.14
  C 329.85 229.96 336.71 231.83 343.00 230.94
  Q 360.31 232.72 379.94 231.64
  Q 381.39 231.56 382.40 231.33
  Q 382.96 231.21 383.04 230.64
  C 384.10 223.34 385.61 211.09 383.63 204.09
  C 382.95 201.69 382.73 198.94 382.05 196.90
  C 374.65 174.69 354.95 159.46 331.75 156.96
  Q 324.15 154.98 316.50 156.71
  Z"
/>
<path fill="#5ff3c8" d="
  M 331.75 156.96
  L 327.50 157.04
  L 316.50 156.71
  Q 324.15 154.98 331.75 156.96
  Z"
/>
<path fill="#8ffbc0" d="
  M 316.50 156.71
  L 327.50 157.04
  L 308.75 157.96
  Q 312.52 156.70 316.50 156.71
  Z"
/>
<path fill="#b2ffc2" d="
  M 327.50 157.04
  L 331.75 156.96
  C 354.95 159.46 374.65 174.69 382.05 196.90
  C 382.73 198.94 382.95 201.69 383.63 204.09
  C 385.61 211.09 384.10 223.34 383.04 230.64
  Q 382.96 231.21 382.40 231.33
  Q 381.39 231.56 379.94 231.64
  Q 360.31 232.72 343.00 230.94
  Q 339.55 229.79 335.92 229.84
  Q 331.26 229.91 329.97 229.79
  Q 326.97 229.49 323.97 229.23
  Q 323.47 229.19 323.01 229.39
  C 320.47 230.51 319.89 228.98 317.87 228.73
  C 316.12 228.51 314.44 229.32 313.05 229.24
  C 311.25 229.13 309.64 228.53 307.88 228.58
  Q 290.94 229.13 274.00 228.96
  Q 272.29 228.94 270.97 229.95
  Q 270.59 230.24 270.11 230.27
  L 265.58 230.57
  A 0.87 0.86 -0.6 0 1 264.66 229.68
  Q 264.82 225.77 263.04 222.50
  Q 263.00 222.38 262.96 222.25
  Q 263.38 210.07 264.03 206.25
  C 264.93 200.93 268.06 194.69 270.71 189.05
  Q 272.32 185.60 274.84 182.64
  Q 276.48 180.71 275.09 182.82
  Q 274.33 183.98 273.61 185.15
  Q 271.43 188.75 273.98 185.40
  Q 276.23 182.45 278.19 179.31
  C 282.01 173.19 286.68 167.47 294.10 164.84
  Q 294.57 164.67 294.83 164.25
  C 295.42 163.28 298.56 162.64 299.73 161.69
  Q 300.10 161.39 300.59 161.36
  Q 303.14 161.21 304.75 159.04
  L 308.75 157.96
  L 327.50 157.04
  Z
  M 373.69 189.53
  Q 371.36 183.64 366.83 179.33
  C 363.43 176.09 360.61 172.71 356.37 170.34
  C 352.48 168.17 349.64 165.83 345.29 164.33
  Q 327.70 158.30 309.60 162.15
  C 308.16 162.45 306.94 163.44 304.98 162.87
  Q 304.55 162.74 304.22 163.03
  C 302.89 164.17 301.24 163.44 299.79 165.13
  Q 299.48 165.50 299.01 165.62
  C 295.86 166.46 293.49 168.80 291.46 170.01
  C 289.25 171.33 287.31 172.15 285.43 173.98
  Q 281.46 177.84 277.49 181.73
  Q 277.13 182.08 277.07 182.58
  Q 276.92 183.84 275.98 184.98
  C 272.22 189.55 269.85 195.78 267.31 201.28
  Q 265.15 205.96 265.20 213.84
  C 265.21 215.56 266.23 217.22 265.32 219.35
  Q 265.11 219.83 265.52 220.16
  C 269.23 223.16 272.04 221.78 275.80 221.89
  C 286.82 222.24 297.94 221.63 308.91 222.37
  Q 313.35 222.68 317.80 222.52
  C 335.80 221.89 353.84 221.88 371.85 221.59
  C 373.99 221.55 376.25 222.28 378.72 221.91
  Q 379.24 221.83 379.56 221.41
  C 382.25 217.85 382.18 210.77 381.74 206.91
  Q 381.73 206.81 381.63 206.83
  Q 381.48 206.87 381.38 206.92
  Q 381.34 206.93 381.34 206.89
  C 380.73 203.17 380.47 199.32 378.11 196.18
  Q 375.82 193.14 374.52 189.47
  Q 374.43 189.22 374.34 189.48
  Q 374.30 189.60 374.26 189.73
  Q 374.21 189.89 374.05 189.85
  Q 373.79 189.78 373.69 189.53
  Z"
/>
<path fill="#8ffbc0" d="
  M 304.75 159.04
  Q 303.14 161.21 300.59 161.36
  Q 300.10 161.39 299.73 161.69
  C 298.56 162.64 295.42 163.28 294.83 164.25
  Q 294.57 164.67 294.10 164.84
  C 286.68 167.47 282.01 173.19 278.19 179.31
  Q 276.23 182.45 273.98 185.40
  Q 271.43 188.75 273.61 185.15
  Q 274.33 183.98 275.09 182.82
  Q 276.48 180.71 274.84 182.64
  Q 272.32 185.60 270.71 189.05
  C 268.06 194.69 264.93 200.93 264.03 206.25
  Q 263.38 210.07 262.96 222.25
  C 262.49 219.71 261.64 217.44 261.77 214.87
  C 262.18 206.97 263.31 198.98 266.54 191.81
  Q 276.47 169.85 299.49 160.28
  Q 302.00 159.24 304.75 159.04
  Z"
/>
<path fill="#ccf8a2" d="
  M 373.69 189.53
  Q 373.79 189.78 374.05 189.85
  Q 374.21 189.89 374.26 189.73
  Q 374.30 189.60 374.34 189.48
  Q 374.43 189.22 374.52 189.47
  Q 375.82 193.14 378.11 196.18
  C 380.47 199.32 380.73 203.17 381.34 206.89
  Q 381.34 206.93 381.38 206.92
  Q 381.48 206.87 381.63 206.83
  Q 381.73 206.81 381.74 206.91
  C 382.18 210.77 382.25 217.85 379.56 221.41
  Q 379.24 221.83 378.72 221.91
  C 376.25 222.28 373.99 221.55 371.85 221.59
  C 353.84 221.88 335.80 221.89 317.80 222.52
  Q 313.35 222.68 308.91 222.37
  C 297.94 221.63 286.82 222.24 275.80 221.89
  C 272.04 221.78 269.23 223.16 265.52 220.16
  Q 265.11 219.83 265.32 219.35
  C 266.23 217.22 265.21 215.56 265.20 213.84
  Q 265.15 205.96 267.31 201.28
  C 269.85 195.78 272.22 189.55 275.98 184.98
  Q 276.92 183.84 277.07 182.58
  Q 277.13 182.08 277.49 181.73
  Q 281.46 177.84 285.43 173.98
  C 287.31 172.15 289.25 171.33 291.46 170.01
  C 293.49 168.80 295.86 166.46 299.01 165.62
  Q 299.48 165.50 299.79 165.13
  C 301.24 163.44 302.89 164.17 304.22 163.03
  Q 304.55 162.74 304.98 162.87
  C 306.94 163.44 308.16 162.45 309.60 162.15
  Q 327.70 158.30 345.29 164.33
  C 349.64 165.83 352.48 168.17 356.37 170.34
  C 360.61 172.71 363.43 176.09 366.83 179.33
  Q 371.36 183.64 373.69 189.53
  Z
  M 278.37 184.85
  Q 268.86 196.51 267.24 212.41
  A 1.68 1.67 -65.7 0 0 267.77 213.82
  Q 270.45 216.29 273.52 214.28
  Q 273.98 213.99 274.52 213.99
  Q 279.86 213.99 285.19 214.45
  C 286.98 214.60 288.51 213.92 290.43 214.06
  Q 293.86 214.30 293.95 214.30
  C 302.55 214.17 311.33 214.76 319.69 214.49
  C 331.78 214.10 343.84 214.51 355.92 214.23
  Q 361.67 214.10 367.40 214.32
  C 370.34 214.44 374.49 213.87 377.81 214.54
  A 1.55 1.55 0.0 0 0 379.66 213.10
  Q 379.96 207.09 378.29 202.67
  C 377.04 199.36 374.35 194.92 374.28 191.44
  Q 374.26 190.94 373.96 190.54
  Q 366.33 180.41 356.42 172.49
  C 355.47 171.73 355.07 170.28 353.17 170.11
  Q 352.70 170.07 352.34 169.77
  C 346.65 165.04 335.85 162.49 329.24 162.23
  C 321.41 161.92 312.81 162.24 305.42 165.08
  C 303.56 165.80 300.37 166.13 299.07 167.59
  C 297.13 169.76 292.98 170.31 290.56 172.66
  C 288.85 174.32 286.97 174.99 285.43 176.71
  Q 282.73 179.74 279.66 182.41
  C 279.15 182.86 279.01 184.06 278.37 184.85
  Z"
/>
<path fill="#f4ffb6" d="
  M 278.37 184.85
  C 279.01 184.06 279.15 182.86 279.66 182.41
  Q 282.73 179.74 285.43 176.71
  C 286.97 174.99 288.85 174.32 290.56 172.66
  C 292.98 170.31 297.13 169.76 299.07 167.59
  C 300.37 166.13 303.56 165.80 305.42 165.08
  C 312.81 162.24 321.41 161.92 329.24 162.23
  C 335.85 162.49 346.65 165.04 352.34 169.77
  Q 352.70 170.07 353.17 170.11
  C 355.07 170.28 355.47 171.73 356.42 172.49
  Q 366.33 180.41 373.96 190.54
  Q 374.26 190.94 374.28 191.44
  C 374.35 194.92 377.04 199.36 378.29 202.67
  Q 379.96 207.09 379.66 213.10
  A 1.55 1.55 0.0 0 1 377.81 214.54
  C 374.49 213.87 370.34 214.44 367.40 214.32
  Q 361.67 214.10 355.92 214.23
  C 343.84 214.51 331.78 214.10 319.69 214.49
  C 311.33 214.76 302.55 214.17 293.95 214.30
  Q 293.86 214.30 290.43 214.06
  C 288.51 213.92 286.98 214.60 285.19 214.45
  Q 279.86 213.99 274.52 213.99
  Q 273.98 213.99 273.52 214.28
  Q 270.45 216.29 267.77 213.82
  A 1.68 1.67 -65.7 0 1 267.24 212.41
  Q 268.86 196.51 278.37 184.85
  Z"
/>
<path fill="#c97ea7" d="
  M 86.75 213.29
  L 85.55 214.25
  Q 85.16 214.56 85.22 215.06
  C 85.44 216.68 84.85 218.01 84.86 219.44
  C 85.14 249.35 84.55 279.27 85.30 309.17
  C 85.31 309.56 85.53 309.86 85.81 310.08
  Q 85.88 310.14 85.81 310.20
  L 85.50 310.46
  Q 77.24 311.82 77.24 304.01
  Q 77.25 261.23 77.26 218.51
  C 77.26 213.24 82.01 212.80 86.75 213.29
  Z"
/>
<path fill="#e389ab" d="
  M 102.50 213.21
  L 96.64 213.45
  Q 96.11 213.48 95.68 213.79
  L 94.05 215.00
  Q 93.60 215.34 93.59 215.90
  C 92.98 246.69 94.37 275.05 94.24 292.69
  Q 94.17 302.78 94.50 309.06
  Q 94.53 309.68 95.15 309.76
  Q 96.35 309.93 95.52 310.45
  L 85.50 310.46
  L 85.81 310.20
  Q 85.88 310.14 85.81 310.08
  C 85.53 309.86 85.31 309.56 85.30 309.17
  C 84.55 279.27 85.14 249.35 84.86 219.44
  C 84.85 218.01 85.44 216.68 85.22 215.06
  Q 85.16 214.56 85.55 214.25
  L 86.75 213.29
  Q 94.62 212.63 102.50 213.21
  Z"
/>
<path fill="#fd8fa1" d="
  M 102.50 213.21
  Q 103.37 213.08 104.23 213.31
  Q 104.75 213.45 104.45 213.91
  Q 102.85 216.39 102.82 219.81
  Q 102.43 281.20 102.98 306.00
  Q 103.01 307.33 104.69 309.82
  Q 105.11 310.43 104.37 310.43
  L 95.52 310.45
  Q 96.35 309.93 95.15 309.76
  Q 94.53 309.68 94.50 309.06
  Q 94.17 302.78 94.24 292.69
  C 94.37 275.05 92.98 246.69 93.59 215.90
  Q 93.60 215.34 94.05 215.00
  L 95.68 213.79
  Q 96.11 213.48 96.64 213.45
  L 102.50 213.21
  Z"
/>
<path fill="#fec89b" d="
  M 202.75 305.28
  A 5.19 5.19 0.0 0 1 197.56 310.47
  L 110.32 310.47
  A 5.19 5.19 0.0 0 1 105.13 305.28
  L 105.13 218.44
  A 5.19 5.19 0.0 0 1 110.32 213.25
  L 197.56 213.25
  A 5.19 5.19 0.0 0 1 202.75 218.44
  L 202.75 305.28
  Z
  M 144.9704 235.9764
  A 3.27 3.27 0.0 0 0 141.6890 232.7179
  L 123.2491 232.7822
  A 3.27 3.27 0.0 0 0 119.9905 236.0636
  L 120.0296 247.2636
  A 3.27 3.27 0.0 0 0 123.3110 250.5221
  L 141.7509 250.4578
  A 3.27 3.27 0.0 0 0 145.0095 247.1764
  L 144.9704 235.9764
  Z
  M 190.73 236.23
  A 3.48 3.48 0.0 0 0 187.25 232.75
  L 165.47 232.75
  A 3.48 3.48 0.0 0 0 161.99 236.23
  L 161.99 247.01
  A 3.48 3.48 0.0 0 0 165.47 250.49
  L 187.25 250.49
  A 3.48 3.48 0.0 0 0 190.73 247.01
  L 190.73 236.23
  Z
  M 190.74 263.64
  A 3.14 3.14 0.0 0 0 187.60 260.50
  L 123.14 260.50
  A 3.14 3.14 0.0 0 0 120.00 263.64
  L 120.00 274.60
  A 3.14 3.14 0.0 0 0 123.14 277.74
  L 187.60 277.74
  A 3.14 3.14 0.0 0 0 190.74 274.60
  L 190.74 263.64
  Z
  M 190.7283 288.6117
  A 2.56 2.56 0.0 0 0 188.1728 286.0472
  L 122.5929 285.9328
  A 2.56 2.56 0.0 0 0 120.0284 288.4883
  L 120.0117 298.0683
  A 2.56 2.56 0.0 0 0 122.5672 300.6328
  L 188.1471 300.7472
  A 2.56 2.56 0.0 0 0 190.7116 298.1917
  L 190.7283 288.6117
  Z"
/>
<path fill="#8ffbc0" d="
  M 263.04 222.50
  Q 264.82 225.77 264.66 229.68
  A 0.87 0.86 -0.6 0 0 265.58 230.57
  L 270.11 230.27
  Q 270.59 230.24 270.97 229.95
  Q 272.29 228.94 274.00 228.96
  Q 290.94 229.13 307.88 228.58
  C 309.64 228.53 311.25 229.13 313.05 229.24
  C 314.44 229.32 316.12 228.51 317.87 228.73
  C 319.89 228.98 320.47 230.51 323.01 229.39
  Q 323.47 229.19 323.97 229.23
  Q 326.97 229.49 329.97 229.79
  Q 331.26 229.91 335.92 229.84
  Q 339.55 229.79 343.00 230.94
  C 336.71 231.83 329.85 229.96 323.64 231.14
  C 320.66 231.71 317.43 231.27 314.80 231.47
  Q 306.40 232.10 297.99 232.10
  Q 297.49 232.10 297.26 232.54
  C 296.08 234.69 294.33 233.32 292.89 233.26
  C 287.21 233.05 282.55 233.00 275.98 232.46
  C 272.01 232.13 267.20 232.82 263.34 231.63
  Q 262.83 231.47 262.84 230.93
  L 263.04 222.50
  Z"
/>
<rect fill="#fd8fa1" x="-8.25" y="-4.01" transform="translate(133.00,241.74) rotate(-0.1)" width="16.50" height="8.02" rx="0.31"/>
<rect fill="#5ff3c8" x="-10.19" y="-3.85" transform="translate(176.81,241.65) rotate(-0.3)" width="20.38" height="7.70" rx="0.64"/>
<path fill="#5ff3c8" d="
  M 222.70 270.75
  Q 222.84 278.42 222.48 297.50
  C 222.32 306.23 228.08 308.52 235.90 308.51
  Q 259.17 308.47 282.55 308.53
  Q 282.45 312.91 280.76 317.04
  Q 280.50 317.67 280.50 316.98
  L 280.50 316.03
  Q 280.50 315.68 280.40 316.01
  L 278.98 320.71
  Q 278.81 321.25 279.38 321.27
  L 285.50 321.46
  Q 258.18 321.53 230.86 321.50
  C 218.15 321.49 212.53 316.65 212.50 303.73
  Q 212.47 290.51 212.54 277.25
  L 212.70 248.75
  Q 212.72 245.74 212.88 248.74
  Q 213.14 253.78 213.04 258.68
  Q 213.03 259.18 213.32 259.59
  Q 214.02 260.59 214.20 261.84
  Q 214.26 262.24 214.67 262.31
  L 219.22 263.02
  Q 219.70 263.09 220.01 262.73
  L 221.67 260.78
  Q 221.75 260.69 221.75 260.81
  L 221.75 261.25
  Q 221.75 262.41 222.00 261.28
  Q 222.06 261.01 222.18 260.78
  Q 222.40 260.34 222.36 260.83
  Q 221.91 265.83 222.70 270.75
  Z"
/>
<path fill="#fd8fa1" d="
  M 151.14 272.77
  Q 149.74 269.94 149.94 266.65
  Q 149.97 266.12 150.43 265.88
  L 152.00 265.04
  C 161.91 264.98 171.91 265.27 181.82 264.83
  Q 184.16 264.73 186.55 265.15
  Q 187.15 265.26 187.16 265.87
  L 187.29 272.14
  Q 187.30 272.75 186.69 272.75
  L 151.14 272.77
  Z"
/>
<rect fill="#c97ea7" x="-5.28" y="-3.80" transform="translate(130.21,268.83) rotate(1.0)" width="10.56" height="7.60" rx="0.85"/>
<path fill="#7e5e93" fill-opacity="0.882" d="
  M 152.00 265.04
  L 150.43 265.88
  Q 149.97 266.12 149.94 266.65
  Q 149.74 269.94 151.14 272.77
  L 143.57 272.75
  A 0.81 0.81 0.0 0 1 142.76 271.96
  L 142.63 266.08
  Q 142.61 265.49 143.21 265.46
  L 152.00 265.04
  Z"
/>
<path fill="#fd8fa1" d="
  M 433.21 275.00
  Q 433.27 289.20 433.26 303.37
  C 433.25 316.89 428.68 321.49 415.32 321.50
  Q 375.79 321.53 336.25 321.46
  L 337.01 321.21
  Q 337.37 321.09 336.99 321.06
  L 332.13 320.69
  Q 331.62 320.66 331.62 320.14
  C 331.62 316.20 333.65 310.38 338.03 309.46
  Q 338.20 309.43 338.06 309.32
  L 337.56 308.96
  Q 337.20 308.69 337.65 308.69
  L 359.75 308.54
  Q 385.87 308.45 412.00 308.52
  C 420.19 308.54 423.16 303.14 422.98 295.68
  Q 422.69 283.86 422.79 272.00
  Q 423.35 272.30 423.27 272.99
  Q 423.14 274.03 423.46 272.98
  C 423.94 271.39 426.75 268.70 426.78 268.03
  Q 426.80 267.55 427.28 267.59
  C 430.71 267.86 432.79 272.12 433.21 275.00
  Z"
/>
<rect fill="#4d7d8a" fill-opacity="0.996" x="-5.43" y="-4.07" transform="translate(131.24,292.23) rotate(0.1)" width="10.86" height="8.14" rx="1.49"/>
<rect fill="#4d7d8a" fill-opacity="0.996" x="-7.79" y="-3.51" transform="translate(177.79,292.11) rotate(0.1)" width="15.58" height="7.02" rx="0.81"/>
<path fill="#bac3ab" d="
  M 282.55 308.53
  L 316.50 308.54
  Q 313.14 308.38 310.82 310.45
  Q 310.47 310.77 310.49 311.24
  C 310.57 313.29 311.45 318.03 309.80 320.26
  Q 309.49 320.69 309.99 320.86
  L 311.75 321.46
  L 285.50 321.46
  L 279.38 321.27
  Q 278.81 321.25 278.98 320.71
  L 280.40 316.01
  Q 280.50 315.68 280.50 316.03
  L 280.50 316.98
  Q 280.50 317.67 280.76 317.04
  Q 282.45 312.91 282.55 308.53
  Z"
/>
<path fill="#e3aca1" d="
  M 316.50 308.54
  L 359.75 308.54
  L 337.65 308.69
  Q 337.20 308.69 337.56 308.96
  L 338.06 309.32
  Q 338.20 309.43 338.03 309.46
  C 333.65 310.38 331.62 316.20 331.62 320.14
  Q 331.62 320.66 332.13 320.69
  L 336.99 321.06
  Q 337.37 321.09 337.01 321.21
  L 336.25 321.46
  L 311.75 321.46
  L 309.99 320.86
  Q 309.49 320.69 309.80 320.26
  C 311.45 318.03 310.57 313.29 310.49 311.24
  Q 310.47 310.77 310.82 310.45
  Q 313.14 308.38 316.50 308.54
  Z"
/>
<path fill="#fec89b" d="
  M 236.54 345.00
  C 196.01 344.05 160.13 345.48 123.04 344.50
  Q 121.77 341.61 119.69 340.56
  Q 105.24 333.28 90.79 326.00
  L 82.02 321.55
  Q 81.64 321.36 81.51 320.95
  L 81.23 320.07
  L 201.85 320.04
  Q 202.35 320.04 202.78 320.29
  Q 219.29 329.95 235.65 339.59
  Q 239.27 341.72 236.54 345.00
  Z
  M 140.46 334.80
  C 152.14 334.73 163.86 335.20 175.56 334.56
  Q 176.55 334.51 175.72 333.97
  C 171.16 331.03 162.87 325.69 157.45 325.71
  Q 139.51 325.79 121.60 325.74
  A 0.22 0.22 0.0 0 0 121.49 326.15
  C 126.00 328.62 135.59 334.83 140.46 334.80
  Z
  M 185.90 329.19
  A 0.92 0.92 0.0 0 0 184.98 328.27
  L 182.64 328.27
  A 0.92 0.92 0.0 0 0 181.72 329.19
  L 181.72 330.83
  A 0.92 0.92 0.0 0 0 182.64 331.75
  L 184.98 331.75
  A 0.92 0.92 0.0 0 0 185.90 330.83
  L 185.90 329.19
  Z
  M 211.7516 333.4997
  A 2.36 2.36 0.0 0 0 209.3468 331.1854
  L 202.5680 331.3156
  A 2.36 2.36 0.0 0 0 200.2538 333.7205
  L 200.2684 334.4803
  A 2.36 2.36 0.0 0 0 202.6732 336.7946
  L 209.4520 336.6644
  A 2.36 2.36 0.0 0 0 211.7662 334.2595
  L 211.7516 333.4997
  Z"
/>
<path fill="#e389ab" d="
  M 81.23 320.07
  L 81.51 320.95
  Q 81.64 321.36 82.02 321.55
  L 90.79 326.00
  Q 89.78 329.24 90.00 332.65
  Q 90.03 333.17 89.65 333.52
  Q 89.03 334.09 89.00 334.96
  L 78.02 329.65
  Q 77.59 329.44 77.43 328.99
  Q 75.19 322.60 81.23 320.07
  Z"
/>
<path fill="#fd8fa1" d="
  M 90.79 326.00
  Q 105.24 333.28 119.69 340.56
  Q 121.77 341.61 123.04 344.50
  L 119.74 350.20
  L 117.25 355.51
  Q 116.11 360.53 112.25 361.46
  Q 110.21 361.77 108.41 360.87
  Q 95.72 354.55 83.12 348.11
  C 79.75 346.39 77.46 345.45 76.89 342.15
  A 0.62 0.62 0.0 0 1 77.76 341.48
  L 98.76 351.34
  A 1.90 1.89 -29.8 0 0 99.39 351.51
  C 102.60 351.77 101.54 345.03 101.35 343.18
  A 0.47 0.46 9.8 0 1 102.02 342.71
  L 109.70 346.55
  Q 110.27 346.83 110.24 347.46
  L 109.94 353.66
  A 0.71 0.71 0.0 0 1 108.75 354.14
  Q 108.01 353.45 107.13 353.01
  Q 105.68 352.28 106.31 353.77
  Q 107.22 355.94 109.71 355.82
  Q 111.07 355.76 111.27 354.41
  Q 111.88 350.21 111.14 346.02
  Q 111.06 345.54 110.62 345.33
  L 89.00 334.96
  Q 89.03 334.09 89.65 333.52
  Q 90.03 333.17 90.00 332.65
  Q 89.78 329.24 90.79 326.00
  Z"
/>
<rect fill="#e389ab" x="-7.30" y="-0.54" transform="translate(135.62,330.56) rotate(24.7)" width="14.60" height="1.08" rx="0.26"/>
<path fill="#e3aca1" d="
  M 143.76 329.93
  C 145.23 330.62 148.25 331.65 150.34 332.82
  Q 151.18 333.29 150.22 333.23
  C 145.46 332.92 140.21 329.55 136.43 327.98
  Q 135.99 327.79 136.44 327.64
  C 138.70 326.91 141.71 328.96 143.76 329.93
  Z"
/>
<rect fill="#e3aca1" x="-7.48" y="-0.42" transform="translate(151.07,330.16) rotate(22.1)" width="14.96" height="0.84" rx="0.27"/>
<path fill="#7e5e93" fill-opacity="0.882" d="
  M 157.77 329.31
  Q 160.22 328.61 162.56 329.62
  Q 163.20 329.90 162.54 330.14
  Q 159.24 331.34 156.55 329.24
  Q 156.10 328.88 155.52 328.81
  Q 154.05 328.64 152.58 328.29
  Q 150.06 327.68 152.65 327.52
  Q 155.22 327.37 157.75 327.66
  Q 159.05 327.81 157.93 328.27
  Q 157.68 328.37 157.50 328.52
  Q 155.95 329.84 157.77 329.31
  Z"
/>
<rect fill="#c97ea7" x="-22.21" y="-5.41" transform="translate(318.56,334.66) rotate(0.2)" width="44.42" height="10.82" rx="0.54"/>
<path fill="#e389ab" d="
  M 100.33 342.25
  L 100.21 349.53
  A 0.56 0.56 0.0 0 1 99.41 350.03
  L 77.35 339.58
  A 0.56 0.56 0.0 0 1 77.03 339.08
  L 76.99 331.93
  A 0.56 0.56 0.0 0 1 77.78 331.42
  L 100.01 341.74
  A 0.56 0.56 0.0 0 1 100.33 342.25
  Z"
/>
<rect fill="#e389ab" x="-3.65" y="-0.68" transform="translate(164.41,332.24) rotate(4.6)" width="7.30" height="1.36" rx="0.58"/>
<rect fill="#6c6665" fill-opacity="0.584" x="-5.75" y="-2.74" transform="translate(206.01,333.99) rotate(-1.1)" width="11.50" height="5.48" rx="2.36"/>
<path fill="#e389ab" d="
  M 123.04 344.50
  C 160.13 345.48 196.01 344.05 236.54 345.00
  L 234.56 349.72
  Q 229.54 350.10 216.50 350.18
  Q 152.83 350.58 119.74 350.20
  L 123.04 344.50
  Z"
/>
<path fill="#fec89b" d="
  M 402.96 374.00
  L 38.89 374.34
  Q 38.56 374.34 38.51 374.02
  Q 38.46 373.74 38.29 373.75
  Q 37.51 371.43 38.98 369.83
  Q 39.35 369.44 39.89 369.40
  C 41.65 369.29 43.45 368.76 45.11 368.76
  Q 137.44 368.75 229.37 368.75
  A 0.49 0.49 0.0 0 0 229.69 367.89
  L 224.91 363.66
  Q 224.21 363.03 225.15 363.05
  Q 230.75 363.13 231.89 357.61
  A 0.73 0.73 0.0 0 1 233.09 357.21
  L 245.78 368.37
  Q 246.21 368.75 246.79 368.75
  L 386.80 368.75
  A 0.36 0.36 0.0 0 0 387.04 368.12
  L 362.19 346.07
  A 0.45 0.45 0.0 0 1 362.48 345.28
  C 366.36 345.21 371.74 344.26 374.84 346.91
  Q 388.24 358.38 401.68 369.81
  Q 403.73 371.55 402.96 374.00
  Z"
/>
<path fill="#e389ab" d="
  M 297.93 346.06
  A 0.21 0.21 0.0 0 1 298.13 346.28
  L 298.12 346.39
  A 3.31 2.79 2.6 0 1 294.69 349.03
  L 291.89 348.90
  A 3.31 2.79 2.6 0 1 288.71 345.97
  L 288.72 345.85
  A 0.21 0.21 0.0 0 1 288.94 345.65
  L 297.93 346.06
  Z"
/>
<path fill="#fd8fa1" d="
  M 310.39 346.08
  A 0.16 0.16 0.0 0 1 310.55 346.25
  L 310.54 346.32
  A 3.91 2.87 2.0 0 1 306.54 349.05
  L 304.84 348.99
  A 3.91 2.87 2.0 0 1 301.03 345.98
  L 301.03 345.91
  A 0.16 0.16 0.0 0 1 301.20 345.76
  L 310.39 346.08
  Z"
/>
<path fill="#fd8fa1" d="
  M 326.20 346.09
  C 328.75 345.79 331.84 345.65 334.42 346.36
  A 0.87 0.87 0.0 0 1 334.53 348.00
  C 332.41 348.89 326.78 350.08 325.76 346.77
  Q 325.58 346.17 326.20 346.09
  Z"
/>
<path fill="#e3aca1" d="
  M 338.44 346.12
  C 340.54 345.78 345.02 345.57 346.96 346.58
  A 0.85 0.85 0.0 0 1 346.80 348.15
  C 344.01 348.92 339.94 349.95 338.14 346.75
  Q 337.83 346.21 338.44 346.12
  Z"
/>
<path fill="#e3aca1" d="
  M 351.04 346.02
  C 353.47 345.91 357.84 345.06 359.70 347.00
  A 0.85 0.84 62.9 0 1 359.25 348.41
  C 356.74 348.88 351.33 350.10 350.57 346.63
  Q 350.44 346.05 351.04 346.02
  Z"
/>
<path fill="#fd8fa1" d="
  M 247.64 346.07
  A 0.15 0.15 0.0 0 1 247.79 346.22
  L 247.79 346.26
  A 3.45 2.79 0.9 0 1 244.30 349.00
  L 241.94 348.96
  A 3.45 2.79 0.9 0 1 238.53 346.12
  L 238.53 346.08
  A 0.15 0.15 0.0 0 1 238.68 345.93
  L 247.64 346.07
  Z"
/>
<path fill="#5ff3c8" d="
  M 273.18 346.11
  A 0.12 0.12 0.0 0 1 273.30 346.23
  L 273.30 346.26
  A 2.68 2.45 0.0 0 1 270.62 348.71
  L 266.50 348.71
  A 2.68 2.45 -0.0 0 1 263.82 346.26
  L 263.82 346.23
  A 0.12 0.12 0.0 0 1 263.94 346.11
  L 273.18 346.11
  Z"
/>
<path fill="#e3aca1" d="
  M 281.05 346.09
  Q 283.63 345.52 285.68 346.97
  Q 286.53 347.57 285.59 348.01
  Q 280.99 350.16 276.86 347.52
  Q 275.94 346.93 276.91 346.42
  Q 278.34 345.68 280.04 346.08
  Q 280.54 346.20 281.05 346.09
  Z"
/>
<path fill="#fd8fa1" d="
  M 314.77 345.97
  L 321.78 346.06
  A 1.05 1.05 0.0 0 1 322.22 348.06
  Q 318.15 350.00 314.27 348.00
  A 1.07 1.07 0.0 0 1 314.77 345.97
  Z"
/>
<path fill="#5ff3c8" d="
  M 260.23 346.33
  A 0.17 0.17 0.0 0 1 260.39 346.50
  L 260.39 346.58
  A 2.91 2.21 0.8 0 1 257.45 348.75
  L 254.01 348.71
  A 2.91 2.21 0.8 0 1 251.13 346.46
  L 251.14 346.38
  A 0.17 0.17 0.0 0 1 251.31 346.21
  L 260.23 346.33
  Z"
/>
<path fill="#c97ea7" d="
  M 234.56 349.72
  L 230.71 357.25
  C 229.82 356.18 229.09 355.54 227.58 355.53
  C 210.23 355.52 192.68 355.10 175.57 355.20
  Q 146.44 355.37 117.25 355.51
  L 119.74 350.20
  Q 152.83 350.58 216.50 350.18
  Q 229.54 350.10 234.56 349.72
  Z"
/>
<ellipse fill="#fd8fa1" cx="0.00" cy="0.00" transform="translate(285.36,351.44) rotate(1.5)" rx="4.75" ry="1.68"/>
<ellipse fill="#fd8fa1" cx="0.00" cy="0.00" transform="translate(346.73,351.37) rotate(-0.2)" rx="4.46" ry="1.73"/>
<path fill="#e3aca1" d="
  M 234.86 351.95
  L 236.26 349.93
  A 0.58 0.58 0.0 0 1 237.10 349.81
  L 239.03 351.34
  A 0.58 0.58 0.0 0 1 238.76 352.37
  L 235.42 352.86
  A 0.58 0.58 0.0 0 1 234.86 351.95
  Z"
/>
<ellipse fill="#fd8fa1" cx="0.00" cy="0.00" transform="translate(247.43,351.37) rotate(1.0)" rx="4.43" ry="1.68"/>
<path fill="#e3aca1" d="
  M 255.99 350.39
  C 258.27 349.94 263.20 348.85 264.24 351.68
  Q 264.45 352.25 263.86 352.38
  C 261.78 352.87 255.83 353.60 255.54 351.00
  Q 255.48 350.48 255.99 350.39
  Z"
/>
<ellipse fill="#e3aca1" cx="0.00" cy="0.00" transform="translate(272.90,351.41) rotate(1.4)" rx="4.64" ry="1.64"/>
<ellipse fill="#fd8fa1" cx="0.00" cy="0.00" transform="translate(297.60,351.52) rotate(1.4)" rx="4.51" ry="1.68"/>
<ellipse fill="#fd8fa1" cx="0.00" cy="0.00" transform="translate(310.04,351.38) rotate(0.6)" rx="4.53" ry="1.72"/>
<ellipse fill="#fd8fa1" cx="0.00" cy="0.00" transform="translate(322.44,351.43) rotate(0.5)" rx="4.54" ry="1.69"/>
<ellipse fill="#fd8fa1" cx="0.00" cy="0.00" transform="translate(334.69,351.41) rotate(1.3)" rx="4.62" ry="1.78"/>
<path fill="#e3aca1" d="
  M 363.02 352.48
  C 360.76 353.16 356.53 353.62 354.91 351.30
  Q 354.53 350.76 355.18 350.63
  C 356.87 350.29 362.99 349.34 363.46 351.74
  Q 363.57 352.32 363.02 352.48
  Z"
/>
<path fill="#6c6665" fill-opacity="0.584" d="
  M 434.92 358.62
  C 432.80 357.45 431.69 354.15 430.88 351.86
  Q 430.74 351.49 431.12 351.38
  Q 436.47 349.90 438.57 355.31
  Q 438.80 355.91 438.32 356.33
  L 435.79 358.52
  Q 435.39 358.87 434.92 358.62
  Z"
/>
<path fill="#fec89b" d="
  M 428.94 365.05
  L 416.42 362.27
  Q 415.82 362.13 415.70 361.53
  C 414.74 356.71 417.52 351.78 422.65 352.17
  C 427.88 352.55 429.81 360.35 429.66 364.49
  Q 429.63 365.20 428.94 365.05
  Z"
/>
<path fill="#fd8fa1" d="
  M 248.65 354.64
  C 251.52 354.12 255.50 352.63 256.77 356.41
  Q 256.97 357.03 256.33 357.15
  C 253.63 357.66 249.45 358.66 248.09 355.70
  Q 247.69 354.82 248.65 354.64
  Z"
/>
<path fill="#fd8fa1" d="
  M 297.92 354.55
  C 301.30 354.30 305.45 352.24 307.08 356.58
  Q 307.23 357.00 306.80 357.11
  C 303.11 358.12 299.52 358.55 297.55 355.27
  A 0.48 0.48 0.0 0 1 297.92 354.55
  Z"
/>
<path fill="#fd8fa1" d="
  M 310.28 354.69
  C 313.95 353.93 317.84 352.54 319.53 356.51
  Q 319.76 357.08 319.16 357.19
  C 316.11 357.80 311.96 358.76 309.95 355.43
  Q 309.59 354.83 310.28 354.69
  Z"
/>
<path fill="#fd8fa1" d="
  M 347.00 354.48
  C 350.15 353.98 353.28 352.84 355.70 355.36
  A 1.08 1.08 0.0 0 1 355.01 357.19
  C 351.54 357.48 349.01 358.71 346.76 354.98
  Q 346.51 354.56 347.00 354.48
  Z"
/>
<path fill="#fd8fa1" d="
  M 234.83 354.29
  C 238.25 353.98 242.13 353.04 244.54 356.28
  A 0.53 0.53 0.0 0 1 244.20 357.13
  C 240.55 357.67 236.93 358.66 234.47 355.06
  Q 234.00 354.37 234.83 354.29
  Z"
/>
<path fill="#fd8fa1" d="
  M 285.42 354.58
  C 287.43 354.04 294.02 353.11 294.50 356.29
  Q 294.58 356.83 294.08 357.05
  Q 288.83 359.34 285.19 355.38
  Q 284.64 354.79 285.42 354.58
  Z"
/>
<path fill="#fd8fa1" d="
  M 322.59 354.56
  C 325.56 354.18 330.99 352.77 331.72 356.44
  Q 331.80 356.84 331.42 357.01
  Q 325.94 359.41 322.32 355.28
  Q 321.78 354.67 322.59 354.56
  Z"
/>
<path fill="#bac3ab" d="
  M 260.67 354.89
  Q 264.45 353.83 268.19 354.60
  A 1.33 1.32 -50.3 0 1 268.42 357.12
  Q 263.94 358.97 260.41 356.11
  A 0.71 0.70 -33.2 0 1 260.67 354.89
  Z"
/>
<path fill="#5ff3c8" d="
  M 273.37 355.01
  Q 278.36 352.73 281.96 356.25
  Q 282.63 356.90 281.73 357.18
  C 278.87 358.05 275.39 358.48 273.16 356.02
  Q 272.57 355.38 273.37 355.01
  Z"
/>
<path fill="#fd8fa1" d="
  M 335.14 354.64
  C 337.61 353.86 343.25 353.37 344.12 356.69
  Q 344.25 357.17 343.77 357.32
  C 341.36 358.03 336.16 358.27 334.83 355.34
  Q 334.59 354.81 335.14 354.64
  Z"
/>
<path fill="#5ff3c8" d="
  M 359.53 354.87
  Q 363.41 353.77 367.26 354.66
  A 1.36 1.36 0.0 0 1 367.48 357.23
  Q 362.61 359.28 359.36 355.40
  Q 359.04 355.01 359.53 354.87
  Z"
/>
<path fill="#b379aa" d="
  M 230.71 357.25
  L 228.78 360.57
  Q 228.52 361.03 227.98 361.05
  C 190.95 362.19 153.63 361.53 116.56 361.37
  Q 114.41 361.37 112.25 361.46
  Q 116.11 360.53 117.25 355.51
  Q 146.44 355.37 175.57 355.20
  C 192.68 355.10 210.23 355.52 227.58 355.53
  C 229.09 355.54 229.82 356.18 230.71 357.25
  Z"
/>
<path fill="#7e5e93" fill-opacity="0.882" d="
  M 74.21 365.65
  C 75.28 363.48 74.57 362.16 73.16 360.18
  Q 72.85 359.76 73.17 359.34
  Q 74.06 358.17 75.63 358.87
  C 80.07 360.84 79.31 368.36 74.42 366.24
  Q 74.00 366.05 74.21 365.65
  Z"
/>
<path fill="#fd8fa1" d="
  M 248.62 361.42
  C 245.78 361.92 241.89 362.37 239.85 359.94
  A 0.51 0.51 0.0 0 1 240.19 359.11
  C 242.75 358.87 248.02 357.58 248.98 360.83
  Q 249.13 361.32 248.62 361.42
  Z"
/>
<path fill="#fd8fa1" d="
  M 253.07 360.84
  A 0.13 0.13 0.0 0 1 252.94 360.71
  L 252.94 360.66
  A 1.99 1.80 -0.8 0 1 254.91 358.83
  L 259.45 358.77
  A 1.99 1.80 -0.8 0 1 261.46 360.54
  L 261.46 360.59
  A 0.13 0.13 0.0 0 1 261.33 360.72
  L 253.07 360.84
  Z"
/>
<ellipse fill="#e389ab" cx="0.00" cy="0.00" transform="translate(307.42,359.95) rotate(-0.6)" rx="4.59" ry="0.98"/>
<path fill="#e3aca1" d="
  M 315.42 360.85
  A 0.14 0.14 0.0 0 1 315.27 360.72
  L 315.27 360.67
  A 4.53 1.75 -1.6 0 1 319.75 358.79
  L 319.95 358.79
  A 4.53 1.75 -1.6 0 1 324.53 360.41
  L 324.53 360.46
  A 0.14 0.14 0.0 0 1 324.40 360.60
  L 315.42 360.85
  Z"
/>
<ellipse fill="#fd8fa1" cx="0.00" cy="0.00" transform="translate(356.32,360.06) rotate(3.3)" rx="4.48" ry="1.47"/>
<ellipse fill="#e3aca1" cx="0.00" cy="0.00" transform="translate(270.36,360.06) rotate(0.1)" rx="4.70" ry="1.09"/>
<rect fill="#e3aca1" x="278.84" y="359.09" width="8.84" height="1.88" rx="0.91"/>
<ellipse fill="#e389ab" cx="0.00" cy="0.00" transform="translate(295.49,359.99) rotate(0.3)" rx="4.56" ry="1.08"/>
<ellipse fill="#e3aca1" cx="0.00" cy="0.00" transform="translate(332.37,359.96) rotate(0.1)" rx="4.85" ry="0.87"/>
<path fill="#5ff3c8" d="
  M 372.39 361.40
  C 370.09 361.69 365.88 362.63 365.06 360.34
  Q 364.86 359.79 365.42 359.64
  C 366.70 359.30 372.88 358.87 372.91 360.79
  A 0.60 0.60 0.0 0 1 372.39 361.40
  Z"
/>
<rect fill="#e3aca1" x="-4.43" y="-0.61" transform="translate(344.74,360.14) rotate(0.5)" width="8.86" height="1.22" rx="0.56"/>
<path fill="#fec89b" d="
  M 465.50 374.04
  Q 439.39 374.59 413.29 374.00
  L 397.40 363.64
  A 1.17 1.16 -28.4 0 1 398.04 361.50
  L 411.75 361.50
  Q 412.25 361.50 412.25 362.00
  L 412.25 362.77
  Q 412.25 363.39 412.84 363.54
  C 419.84 365.35 427.46 367.74 434.46 367.42
  Q 439.34 367.20 444.54 366.19
  A 1.07 1.06 -23.7 0 0 445.20 364.51
  L 443.48 362.17
  Q 442.98 361.49 443.82 361.37
  Q 446.43 360.99 448.92 361.37
  C 453.24 362.02 460.72 367.89 464.71 370.28
  Q 466.60 371.41 465.50 374.04
  Z"
/>
<path fill="#7e5e93" fill-opacity="0.882" d="
  M 32.19 380.06
  Q 33.18 381.73 35.72 381.44
  Q 36.35 381.37 36.57 381.98
  L 37.25 383.84
  Q 37.43 384.34 36.91 384.47
  C 26.50 387.06 25.31 372.80 32.08 367.81
  C 38.55 363.04 46.49 362.53 55.81 362.02
  Q 63.93 361.57 72.08 361.80
  Q 72.67 361.82 72.86 362.37
  Q 73.35 363.78 72.59 365.11
  Q 72.37 365.49 71.92 365.48
  Q 62.91 365.28 46.75 366.33
  Q 40.40 366.74 35.86 369.67
  C 32.30 371.97 29.82 376.07 32.19 380.06
  Z"
/>
<path fill="#e389ab" d="
  M 315.50 362.04
  Q 312.49 362.72 313.14 365.55
  Q 313.26 366.07 312.74 366.20
  L 311.75 366.46
  L 256.94 366.48
  Q 256.25 366.48 256.25 365.80
  L 256.25 362.96
  Q 256.25 362.26 256.95 362.25
  Q 286.23 361.62 315.50 362.04
  Z"
/>
<path fill="#fec89b" d="
  M 311.75 366.46
  L 312.74 366.20
  Q 313.26 366.07 313.14 365.55
  Q 312.49 362.72 315.50 362.04
  L 351.04 361.90
  Q 351.65 361.90 351.69 362.52
  L 351.91 365.84
  Q 351.95 366.49 351.30 366.49
  L 311.75 366.46
  Z"
/>
<path fill="#fd8fa1" d="
  M 249.42 362.76
  C 251.43 362.26 251.67 363.94 251.49 365.42
  Q 251.42 366.00 250.84 366.00
  C 248.38 365.99 245.04 366.80 244.29 363.42
  Q 244.19 362.99 244.63 362.91
  Q 246.54 362.57 248.53 362.82
  Q 248.98 362.87 249.42 362.76
  Z"
/>
<path fill="#e3aca1" d="
  M 357.01 363.26
  C 358.84 363.24 365.33 362.17 364.73 365.43
  Q 364.66 365.86 364.22 365.94
  C 361.74 366.39 357.18 366.98 356.56 363.82
  Q 356.45 363.27 357.01 363.26
  Z"
/>
<path fill="#bac3ab" d="
  M 369.07 363.18
  L 376.13 363.42
  Q 376.75 363.44 377.03 364.00
  Q 377.77 365.52 376.30 365.96
  Q 371.98 367.25 368.56 364.58
  A 0.78 0.78 0.0 0 1 369.07 363.18
  Z"
/>
<path fill="#e389ab" d="
  M 38.29 373.75
  Q 38.46 373.74 38.51 374.02
  Q 38.56 374.34 38.89 374.34
  L 402.96 374.00
  L 402.97 378.65
  L 231.76 378.33
  Q 231.40 378.33 231.68 378.49
  Q 231.78 378.55 231.94 378.49
  Q 169.50 378.58 107.06 378.45
  C 84.47 378.41 61.93 378.88 39.22 378.88
  A 0.69 0.68 87.2 0 1 38.54 378.26
  L 38.21 374.75
  L 38.29 373.75
  Z"
/>
<path fill="#c97ea7" d="
  M 413.29 374.00
  Q 439.39 374.59 465.50 374.04
  L 465.51 380.99
  Q 465.51 381.58 465.06 381.94
  Q 463.63 383.11 460.81 383.15
  Q 439.29 383.47 417.77 382.95
  C 415.10 382.88 413.24 383.45 413.17 379.72
  Q 413.12 376.89 413.29 374.00
  Z"
/>
<path fill="#c97ea7" d="
  M 38.21 374.75
  L 38.54 378.26
  A 0.69 0.68 87.2 0 0 39.22 378.88
  C 61.93 378.88 84.47 378.41 107.06 378.45
  Q 169.50 378.58 231.94 378.49
  Q 231.78 378.55 231.68 378.49
  Q 231.40 378.33 231.76 378.33
  L 402.97 378.65
  Q 403.27 379.55 402.71 381.94
  Q 402.57 382.50 402.01 382.60
  Q 398.63 383.21 395.19 383.21
  Q 218.13 383.26 41.06 383.24
  C 37.36 383.24 37.69 377.84 38.21 374.75
  Z"
/>
</svg>
