<svg width="30" height="30" viewBox="0 0 30 30" fill="none" xmlns="http://www.w3.org/2000/svg">
<g clip-path="url(#clip0_3660_6307)">
<path d="M19.7 0.799988C16.9 0.799988 14.3 1.99999 12.5 4.09999C11.3 3.49999 10.1 3.19999 8.69995 3.19999C4.29995 3.19999 0.699951 6.79999 0.699951 11.2C0.699951 15.6 4.29995 19.2 8.69995 19.2H8.79995C9.49995 21 11.2 22.2 13.2 22.2C15 22.2 16.5999 21.2 17.4 19.6C18.1 19.8 18.9 19.9 19.7 19.9C24.9 19.9 29.2 15.7 29.2 10.4C29.2 5.09999 24.9 0.799988 19.7 0.799988ZM19.7 18.5C18.9 18.5 18 18.4 17.2999 18.1C17 18 16.7 18.2 16.6 18.5C16.1 19.9 14.8 20.9 13.3 20.9C11.7 20.9 10.4 19.9 9.89995 18.3C9.79995 18 9.49995 17.9 9.19995 17.9C9.09995 17.9 8.99995 17.9 8.89995 17.9C4.99995 18 1.99995 14.9 1.99995 11.2C1.99995 7.49999 4.99995 4.39999 8.79995 4.39999C10.1 4.39999 11.3 4.79999 12.4 5.39999C12.7 5.59999 13 5.49999 13.2 5.29999C14.8 3.19999 17.1999 1.99999 19.7999 1.99999C24.4 1.99999 28.1 5.69999 28.1 10.3C28.1 14.9 24.3 18.5 19.7 18.5Z" fill="black"/>
<path d="M9.09995 22.1C7.79995 22.1 6.69995 23.2 6.69995 24.5C6.69995 25.8 7.79995 26.9 9.09995 26.9C10.4 26.9 11.5 25.8 11.5 24.5C11.4 23.2 10.4 22.1 9.09995 22.1ZM9.09995 25.6C8.39995 25.6 7.89995 25.1 7.89995 24.4C7.89995 23.7 8.39995 23.2 9.09995 23.2C9.79995 23.2 10.3 23.7 10.3 24.4C10.2 25.1 9.69995 25.6 9.09995 25.6Z" fill="black"/>
<path d="M3.6999 25.6C2.6999 25.6 1.8999 26.4 1.8999 27.4C1.8999 28.4 2.6999 29.2 3.6999 29.2C4.6999 29.2 5.4999 28.4 5.4999 27.4C5.4999 26.4 4.6999 25.6 3.6999 25.6ZM3.6999 28C3.3999 28 3.0999 27.7 3.0999 27.4C3.0999 27.1 3.3999 26.8 3.6999 26.8C3.9999 26.8 4.2999 27.1 4.2999 27.4C4.2999 27.7 4.0999 28 3.6999 28Z" fill="black"/>
</g>
<defs>
<clipPath id="clip0_3660_6307">
<rect width="30" height="30" fill="white"/>
</clipPath>
</defs>
</svg>
