<svg width="30" height="30" viewBox="0 0 30 30" fill="none" xmlns="http://www.w3.org/2000/svg">
<g clip-path="url(#clip0_3660_6288)">
<path d="M22.6 11.46L23.8 9.64001C23.94 9.43001 23.95 9.16001 23.82 8.94001L22.66 6.93001C22.53 6.71001 22.29 6.57001 22.04 6.60001L19.86 6.73001L17.74 3.06001C17.41 2.49001 16.83 2.15001 16.18 2.14001H16.15C15.52 2.14001 14.95 2.46001 14.61 2.98001L7.02996 12.63L2.10996 15.47C1.14996 16.02 0.459963 16.92 0.169963 17.99C-0.120037 19.06 0.0299634 20.18 0.579963 21.15C1.58996 22.91 3.75996 23.67 5.64996 22.96L8.53996 27.96C8.85996 28.51 9.37996 28.91 9.99996 29.08C10.21 29.14 10.43 29.17 10.64 29.17C11.06 29.17 11.47 29.06 11.84 28.85C12.4 28.53 12.8 28.01 12.97 27.38C13.14 26.76 13.05 26.11 12.73 25.55L11.03 22.61L12.46 21.78C12.62 21.69 12.73 21.55 12.77 21.37C12.82 21.2 12.79 21.02 12.7 20.86L12.01 19.66C12.43 19.58 14.26 19.22 23 17.5C23.64 17.47 24.21 17.11 24.51 16.54C24.82 15.98 24.81 15.31 24.49 14.75L22.59 11.45L22.6 11.46ZM20.61 8.02001L21.71 7.95001L22.46 9.24001L21.86 10.16L20.62 8.01001L20.61 8.02001ZM22.75 16.19C22.75 16.19 22.7 16.2 22.66 16.21L15.57 3.93001L15.64 3.84001C15.7 3.77001 15.71 3.75001 15.73 3.71001C15.86 3.49001 16.08 3.47001 16.16 3.47001C16.24 3.47001 16.45 3.50001 16.58 3.72001L23.34 15.43C23.43 15.58 23.43 15.76 23.34 15.92C23.25 16.07 23.1 16.17 22.92 16.17C22.86 16.17 22.82 16.17 22.74 16.2L22.75 16.19ZM11.19 27.68C10.94 27.82 10.65 27.86 10.38 27.79C10.1 27.72 9.86996 27.54 9.72996 27.29L6.86996 22.33L8.72996 21.26C10.88 24.98 11.42 25.92 11.55 26.15L11.59 26.22C11.73 26.47 11.77 26.76 11.7 27.03C11.63 27.31 11.45 27.54 11.2 27.68H11.19ZM8.29996 13.2L14.67 5.07001L21.26 16.48L11.31 18.43L8.28996 13.2H8.29996ZM11.22 20.95L10.37 21.44L9.87996 20.59L10.73 20.1L11.22 20.95ZM1.75996 20.48C1.50996 20.05 1.37996 19.57 1.37996 19.08C1.37996 18.08 1.91996 17.14 2.78996 16.64L7.23996 14.07L10.05 18.95L5.59996 21.52C4.25996 22.3 2.52996 21.83 1.74996 20.49L1.75996 20.48Z" fill="black"/>
<path d="M29.8799 3.65001C29.7899 3.49001 29.6499 3.38001 29.4799 3.33001C29.3099 3.28001 29.1299 3.30001 28.9699 3.39001L25.7299 5.19001C25.4099 5.37001 25.2899 5.78001 25.4699 6.10001C25.5899 6.32001 25.8199 6.44001 26.0599 6.44001C26.1699 6.44001 26.2799 6.41001 26.3899 6.36001L29.6299 4.56001C29.9499 4.38001 30.0699 3.97001 29.8899 3.65001H29.8799Z" fill="black"/>
<path d="M28.7 9.40003L26.45 8.80003C26.28 8.75003 26.1 8.78003 25.94 8.87003C25.78 8.96003 25.67 9.10003 25.63 9.28003C25.58 9.45003 25.61 9.63003 25.7 9.79003C25.79 9.95003 25.93 10.06 26.11 10.1L28.36 10.7C28.42 10.72 28.48 10.72 28.53 10.72C28.65 10.72 28.76 10.69 28.87 10.63C29.02 10.54 29.14 10.4 29.18 10.22C29.23 10.05 29.2 9.87003 29.11 9.71003C29.02 9.55003 28.88 9.44003 28.7 9.40003Z" fill="black"/>
<path d="M22.82 4.40001C22.88 4.42001 22.94 4.42001 22.99 4.42001C23.29 4.42001 23.56 4.22001 23.64 3.92001L24.24 1.67001C24.34 1.31001 24.12 0.940014 23.77 0.850014C23.6 0.800014 23.42 0.830014 23.26 0.920014C23.1 1.01001 22.99 1.15001 22.95 1.33001L22.35 3.58001C22.3 3.75001 22.33 3.93001 22.42 4.09001C22.51 4.25001 22.65 4.36001 22.83 4.40001H22.82Z" fill="black"/>
</g>
<defs>
<clipPath id="clip0_3660_6288">
<rect width="30" height="30" fill="white"/>
</clipPath>
</defs>
</svg>
