<svg width="79" height="13" viewBox="0 0 79 13" fill="none" xmlns="http://www.w3.org/2000/svg">
<path d="M0.734 12H1.856V0.287H0.734V12ZM8.41441 12.204C9.53641 12.204 10.5564 11.796 11.2704 11.116L10.5904 10.368C10.0294 10.861 9.28141 11.167 8.44841 11.167C6.69741 11.167 5.28641 9.875 5.28641 8.022C5.28641 6.152 6.69741 4.894 8.44841 4.894C9.28141 4.894 10.0464 5.2 10.5904 5.693L11.2534 4.945C10.5564 4.282 9.53641 3.857 8.41441 3.857C6.13641 3.857 4.19841 5.506 4.19841 8.022C4.19841 10.538 6.13641 12.204 8.41441 12.204ZM16.6476 12.204C18.9086 12.204 20.8126 10.538 20.8126 8.022C20.8126 5.506 18.9086 3.857 16.6476 3.857C14.3866 3.857 12.4996 5.506 12.4996 8.022C12.4996 10.538 14.3866 12.204 16.6476 12.204ZM16.6476 11.167C14.9646 11.167 13.5876 9.892 13.5876 8.022C13.5876 6.152 14.9646 4.894 16.6476 4.894C18.3136 4.894 19.7246 6.152 19.7246 8.022C19.7246 9.892 18.3136 11.167 16.6476 11.167ZM26.8133 3.857C25.8273 3.857 24.5353 4.35 24.0593 5.489V4.061H22.9713V12H24.0593V7.597C24.0933 5.676 25.4363 4.928 26.7113 4.928C27.9863 4.928 28.9553 5.897 28.9553 7.427V12H30.0433V7.376C30.0433 5.183 28.7343 3.857 26.8133 3.857ZM40.589 0.287V5.676H34.146V0.287H33.024V12H34.146V6.679H40.589V12H41.711V0.287H40.589ZM48.2404 12.204C50.5014 12.204 52.4054 10.538 52.4054 8.022C52.4054 5.506 50.5014 3.857 48.2404 3.857C45.9794 3.857 44.0924 5.506 44.0924 8.022C44.0924 10.538 45.9794 12.204 48.2404 12.204ZM48.2404 11.167C46.5574 11.167 45.1804 9.892 45.1804 8.022C45.1804 6.152 46.5574 4.894 48.2404 4.894C49.9064 4.894 51.3174 6.152 51.3174 8.022C51.3174 9.892 49.9064 11.167 48.2404 11.167ZM60.4291 4.061V8.498C60.4121 10.419 59.0521 11.167 57.7941 11.167C56.5021 11.167 55.5501 10.198 55.5501 8.668V4.061H54.4621V8.685C54.4451 10.878 55.7541 12.204 57.6751 12.204C58.6611 12.204 59.9531 11.728 60.4291 10.606V12H61.5171V4.061H60.4291ZM66.4868 12.204C68.1358 12.204 69.4108 11.269 69.4108 9.858C69.4108 8.94 68.9348 8.005 67.3878 7.631L66.2148 7.342C65.6368 7.206 64.9908 6.883 64.9908 6.135C64.9908 5.387 65.6198 4.826 66.5378 4.826C67.3198 4.826 68.0168 5.302 68.0678 6.016H69.1218C69.0708 4.588 67.8468 3.857 66.5208 3.857C65.0078 3.857 63.9028 4.826 63.9028 6.118C63.9028 7.444 64.8038 8.022 65.9258 8.294L67.0648 8.566C67.8808 8.77 68.3228 9.195 68.3228 9.841C68.3228 10.64 67.6258 11.235 66.4868 11.235C65.3308 11.235 64.7188 10.555 64.5998 9.892H63.5968C63.7328 11.405 65.1098 12.204 66.4868 12.204ZM78.9599 8.005C78.9599 5.489 77.2939 3.857 75.0329 3.857C72.7889 3.857 71.0039 5.489 71.0039 8.005C71.0039 10.521 72.7889 12.204 75.0329 12.204C76.5289 12.204 77.8889 11.456 78.5859 10.181L77.6509 9.773C77.1239 10.64 76.1549 11.167 75.0669 11.167C73.4689 11.167 72.2789 10.181 72.0919 8.481H78.9259C78.9429 8.328 78.9599 8.158 78.9599 8.005ZM72.1089 7.546C72.3299 5.846 73.4689 4.894 75.0329 4.894C76.5799 4.894 77.7189 5.897 77.8719 7.546H72.1089Z" fill="black"/>
</svg>
