<svg width="30" height="30" viewBox="0 0 30 30" fill="none" xmlns="http://www.w3.org/2000/svg">
<g clip-path="url(#clip0_3660_6267)">
<path d="M6.20001 18.9L11.2 23.9C11.7 24.4 12.3 24.6 13 24.5L13.4 24.4L14 28.1C14.1 28.6 14.4 29 14.8 29.1C15.2 29.3 15.7 29.2 16.1 29L20.5 26.1C21 25.7 21.4 25.2 21.4 24.5L21.7 20.2L21.8 20.1C24 18.3 25.9 15.9 27.1 13.8C29.3 9.50001 29.4 5.00001 29.3 2.70001C29.2 1.60001 28.4 0.800012 27.3 0.700012C25 0.700012 20.5 0.800012 16.2 3.00001C14 4.10001 11.7 6.00001 9.80001 8.30001L9.70001 8.40001H9.60001L5.40001 8.70001C4.80001 8.70001 4.20001 9.10001 3.80001 9.60001L1.00001 14C0.700008 14.4 0.700008 14.9 0.900008 15.3C1.10001 15.7 1.50001 16 1.90001 16.1L5.60001 16.7L5.50001 17.1C5.50001 17.7 5.70001 18.4 6.20001 18.9ZM12.7 23.1H12.6C12.4 23.1 12.2 23 12.1 22.9L7.10001 17.9C6.90001 17.7 6.90001 17.5 6.90001 17.3C7.00001 16.5 7.30001 15.6 7.60001 14.8L7.70001 14.5L15.5 22.3L15.2 22.4C14.4 22.7 13.5 23 12.7 23.1ZM19.9 24.5C19.9 24.7 19.8 24.9 19.6 25.1L15.2 28L14.6 24H14.8C16.5 23.5 18.3 22.7 19.9 21.6L20.2 21.4L19.9 24.5ZM10.9 9.10001C12.6 7.00001 14.8 5.20001 16.8 4.20001C20.8 2.10001 25 2.00001 27.2 2.10001C27.6 2.10001 27.9 2.40001 27.9 2.80001C28 5.00001 27.9 9.20001 25.8 13.2C24.7 15.2 23 17.4 20.9 19.1C19.6 20.1 18.3 21 16.9 21.7L16.8 21.8L8.20001 13.2L8.30001 13.1C9.00001 11.7 9.80001 10.4 10.9 9.10001ZM2.10001 14.8L5.00001 10.4C5.10001 10.2 5.30001 10.1 5.60001 10.1L8.70001 9.90001L8.50001 10.2C7.40001 11.8 6.60001 13.6 6.10001 15.3V15.5L2.10001 14.8Z" fill="black"/>
<path d="M20.3001 5.60004C19.3001 5.60004 18.2001 6.00004 17.4001 6.80004C16.6001 7.60004 16.2001 8.60004 16.2001 9.70004C16.2001 10.8 16.6001 11.8 17.4001 12.6C18.2001 13.4 19.2001 13.8 20.3001 13.8C21.4001 13.8 22.4001 13.4 23.2001 12.6C24.0001 11.8 24.4001 10.8 24.4001 9.70004C24.4001 8.60004 24.0001 7.60004 23.2001 6.80004C22.4001 6.00004 21.4001 5.60004 20.3001 5.60004ZM22.3001 11.6C21.8001 12.1 21.1001 12.4 20.4001 12.4C19.7001 12.4 19.0001 12.1 18.5001 11.6C18.0001 11.1 17.7001 10.4 17.7001 9.70004C17.7001 9.00004 18.0001 8.30004 18.5001 7.80004C19.0001 7.30004 19.7001 7.00004 20.4001 7.00004C21.1001 7.00004 21.8001 7.30004 22.3001 7.80004C22.8001 8.30004 23.1001 9.00004 23.1001 9.70004C23.1001 10.4 22.8001 11.1 22.3001 11.6Z" fill="black"/>
<path d="M1.00005 23C0.900049 23.1 0.800049 23.3 0.800049 23.5C0.800049 23.7 0.900049 23.8 1.00005 24C1.30005 24.3 1.70005 24.3 1.90005 24L4.70005 21.2C4.80005 21.1 4.90005 20.9 4.90005 20.7C4.90005 20.5 4.80005 20.4 4.70005 20.2C4.60005 20.1 4.40005 20 4.20005 20C4.00005 20 3.90005 20.1 3.70005 20.2L1.00005 23Z" fill="black"/>
<path d="M0.900049 28.1C0.600049 28.4 0.600049 28.8 0.900049 29C1.20005 29.3 1.60005 29.3 1.80005 29L7.10005 23.7C7.20005 23.6 7.30005 23.4 7.30005 23.2C7.30005 23 7.20005 22.9 7.10005 22.7C7.00005 22.6 6.80005 22.5 6.60005 22.5C6.40005 22.5 6.30005 22.6 6.10005 22.7L0.900049 28.1Z" fill="black"/>
<path d="M9.70005 25.3C9.40005 25 9.00005 25 8.80005 25.3L6.00005 28.1C5.90005 28.2 5.80005 28.4 5.80005 28.6C5.80005 28.8 5.90005 28.9 6.00005 29.1C6.30005 29.4 6.70005 29.4 6.90005 29.1L9.70005 26.3C10 26 10 25.6 9.70005 25.3Z" fill="black"/>
</g>
<defs>
<clipPath id="clip0_3660_6267">
<rect width="30" height="30" fill="white"/>
</clipPath>
</defs>
</svg>
