<svg width="30" height="30" viewBox="0 0 30 30" fill="none" xmlns="http://www.w3.org/2000/svg">
<path d="M25.1 14L24.9 13.9L25.1 13.8C26.3 12.9 27 11.6 27 10.1C27 7.60002 25 5.60002 22.5 5.60002C21.5 5.60002 20.6 5.90002 19.9 6.50002C18.9 4.90002 17.1 3.90002 15.1 3.90002C13.1 3.90002 11.3 5.00002 10.3 6.60002C9.5 5.90002 8.5 5.50002 7.6 5.50002C5.1 5.50002 3.1 7.50002 3.1 10C3.1 11.4 3.8 12.8 5 13.7L5.2 13.8L4.9 14C2 15.1 0 17.9 0 21.1C0 22.4 1.1 23.5 2.4 23.5H5.5C5.6 25 6.9 26.2 8.4 26.2H21.4C23 26.2 24.2 25 24.3 23.5H27.4C28.8 23.5 29.8 22.4 29.8 21.1C30 17.9 28 15.1 25.1 14ZM28.8 21.1C28.8 21.8 28.2 22.4 27.5 22.4H24.4C24.1 19.4 22.4 16.8 19.8 15.2C20.6 14.8 21.5 14.7 22.3 14.7C25.9 14.6 28.8 17.5 28.8 21.1ZM19.7 14C19.3 14.1 19 14.3 18.6 14.6C18.5 14.6 18.5 14.5 18.4 14.5L17.9 14.3L18.3 14C18.6 13.8 18.9 13.5 19.1 13.3C19.3 13.5 19.5 13.7 19.7 13.9L19.9 14H19.7ZM20.6 9.40002C20.6 8.70002 20.5 8.10002 20.3 7.50002C20.9 7.00002 21.6 6.70002 22.4 6.70002C24.3 6.70002 25.8 8.20002 25.8 10.1C25.8 12 24.3 13.5 22.4 13.5C21.4 13.5 20.5 13 19.8 12.3C20.3 11.4 20.6 10.4 20.6 9.40002ZM15 13.8C12.5 13.8 10.6 11.8 10.6 9.40002C10.6 7.00002 12.6 5.00002 15 5.00002C17.4 5.00002 19.4 7.00002 19.4 9.40002C19.4 11.8 17.5 13.8 15 13.8ZM10.3 13.8C10.5 13.6 10.7 13.4 10.9 13.2C11.1 13.5 11.4 13.7 11.7 13.9L12.1 14.2L11.6 14.4C11.5 14.4 11.5 14.5 11.4 14.5C11 14.3 10.7 14.1 10.3 13.9L10.1 13.8H10.3ZM9.4 9.40002C9.4 10.4 9.7 11.4 10.2 12.3C9.6 13.1 8.6 13.5 7.6 13.5C5.7 13.5 4.2 12 4.2 10.1C4.2 8.20002 5.7 6.70002 7.6 6.70002C8.4 6.70002 9.1 7.00002 9.7 7.50002C9.5 8.10002 9.4 8.70002 9.4 9.40002ZM15 15C19.6 15 23.3 18.7 23.3 23.3C23.3 24.3 22.5 25.1 21.5 25.1H8.5C7.5 25.1 6.7 24.3 6.7 23.3C6.7 18.7 10.4 15 15 15ZM10.1 15.2C7.6 16.7 5.8 19.4 5.5 22.4H2.5C1.8 22.4 1.2 21.8 1.2 21.1C1.2 17.6 4.1 14.7 7.6 14.7C8.5 14.6 9.3 14.8 10.1 15.2Z" fill="black"/>
</svg>
