<svg width="30" height="30" viewBox="0 0 30 30" fill="none" xmlns="http://www.w3.org/2000/svg">
<path d="M23.5301 15.46L23 15.37C22.8213 15.3538 22.6441 15.3237 22.47 15.28H22.2901V24C20.8701 22.6 17.23 19.23 14.9 17.22L16.34 15.91C17.17 15.16 18.03 14.38 18.88 13.58L19.0201 13.45L18.8601 13.35C18.6238 13.1677 18.4266 12.9399 18.2801 12.68L18.18 12.53L17.24 13.4C15.37 15.11 13.45 16.88 12.42 17.74C12.3447 17.8217 12.251 17.8842 12.1466 17.9225C12.0423 17.9607 11.9303 17.9736 11.82 17.96C11.6274 17.9408 11.4423 17.8756 11.28 17.77L11.19 17.72L7.92005 14.72C5.83005 12.82 3.49005 10.67 2.29005 9.6H16.64L16.55 9.23C16.4728 8.98364 16.4291 8.72801 16.42 8.47V8.31H2.17005C1.6102 8.31776 1.07547 8.5436 0.679563 8.93951C0.283655 9.33542 0.0578076 9.87015 0.0500488 10.43V24C0.0603808 24.5581 0.287363 25.0903 0.682999 25.4841C1.07863 25.8778 1.61191 26.1023 2.17005 26.11H21.5401C22.0972 26.1022 22.6294 25.8774 23.0235 25.4834C23.4175 25.0894 23.6423 24.5572 23.65 24V15.48L23.5301 15.46ZM8.72005 17.12C6.72005 18.87 3.86005 21.54 2.15005 23.12L1.34005 23.89V10.43C2.67005 11.66 6.27005 14.93 8.72005 17.12ZM3.08005 24.12C4.82005 22.48 7.71005 19.76 9.67005 18.12C9.93509 18.3238 10.1677 18.5665 10.36 18.84C10.748 19.2064 11.2614 19.4105 11.795 19.4105C12.3287 19.4105 12.8421 19.2064 13.23 18.84C13.5128 18.6401 13.7624 18.3971 13.97 18.12C15.97 19.88 18.8701 22.57 20.59 24.19L21.24 24.81H2.37005L3.08005 24.12Z" fill="black"/>
<path d="M29 4.84002C28.3869 4.24129 27.567 3.90116 26.71 3.89002C26.0654 3.88824 25.4362 4.08748 24.91 4.46002C24.6726 4.61724 24.4602 4.8094 24.2801 5.03002L24.2001 4.93002C24.0534 4.75338 23.8854 4.59552 23.7001 4.46002C23.1702 4.0873 22.5378 3.88815 21.89 3.89002C21.4638 3.87351 21.0392 3.94992 20.6454 4.11397C20.2517 4.27802 19.8984 4.52577 19.6101 4.84002C19.2948 5.14876 19.0474 5.51992 18.8838 5.92975C18.7202 6.33958 18.644 6.77904 18.66 7.22002C18.7144 8.20068 19.1107 9.13128 19.7801 9.85002C20.5511 10.6523 21.3764 11.4008 22.25 12.09L22.49 12.28L23.66 13.21L23.7701 13.28L23.88 13.35C24.0044 13.4333 24.1504 13.4784 24.3 13.48C24.4502 13.4815 24.597 13.4361 24.72 13.35L24.8701 13.26H24.9401C25.3601 12.92 25.78 12.59 26.13 12.33L26.34 12.15C27.2171 11.4575 28.0457 10.7057 28.82 9.90002C29.5474 9.19448 29.9708 8.23295 30 7.22002C29.9926 6.32607 29.6333 5.47104 29 4.84002ZM28.83 7.22002C28.8093 7.96813 28.5097 8.68147 27.99 9.22002C27.311 9.94045 26.579 10.609 25.8 11.22L25.43 11.53L24.3 12.41C23.9 12.09 23.5001 11.77 23.18 11.53C22.12 10.65 21.1801 9.84002 20.5301 9.15002C20.0067 8.61301 19.7035 7.89949 19.68 7.15002C19.6745 6.53463 19.9116 5.94183 20.34 5.50002C20.7528 5.09038 21.3086 4.85729 21.89 4.85002C22.3296 4.84565 22.7584 4.98624 23.1101 5.25002C23.3811 5.45884 23.6145 5.7125 23.8 6.00002C23.9384 6.12901 24.1129 6.21274 24.3 6.24002C24.4259 6.22648 24.5481 6.18915 24.66 6.13002H24.72V6.07002C24.8838 5.78736 25.1012 5.53939 25.3601 5.34002C25.7256 5.09493 26.1506 4.95326 26.59 4.93002C27.1748 4.93575 27.7343 5.16888 28.15 5.58002C28.366 5.79503 28.5372 6.05062 28.6539 6.33209C28.7706 6.61355 28.8305 6.91532 28.83 7.22002Z" fill="black"/>
</svg>
