<svg width="30" height="30" viewBox="0 0 30 30" fill="none" xmlns="http://www.w3.org/2000/svg">
<g clip-path="url(#clip0_3660_6265)">
<path d="M4.69998 29.4H25.4C25.8 29.4 26.1 29.1 26.1 28.7V17.1L26.4 17.2C27.3 17.5 28.2 17.3 28.9 16.6C29.4 16.2 29.6 15.6 29.6 14.9C29.6 14.3 29.4 13.7 28.9 13.2L24.4 8.7V2.9C24.4 2.5 24.1 2.2 23.7 2.2H20.3C19.9 2.2 19.6 2.5 19.6 2.9V4L16.8 1.2C16.4 0.8 15.8 0.5 15.1 0.5C14.5 0.5 13.9 0.7 13.4 1.2L1.29998 13.2C0.799976 13.7 0.599976 14.2 0.599976 14.9C0.599976 15.5 0.799976 16.1 1.29998 16.6C1.99998 17.3 2.89998 17.5 3.79998 17.2L3.99998 17.1V28.8C3.99998 29.1 4.29998 29.4 4.69998 29.4ZM17.8 28.1H12.3V20.7H17.8V28.1ZM24.7 28.1H19.2V20.1C19.2 19.7 18.9 19.4 18.5 19.4H11.6C11.2 19.4 10.9 19.7 10.9 20.1V28.1H5.29998V15.9L5.39998 15.8L15.1 6.2L24.7 15.8V28.1ZM20.9 3.6H23V7.5L20.9 5.4V3.6ZM3.69998 15.7C3.49998 15.9 3.19998 16 2.89998 16C2.59998 16 2.39998 15.9 2.19998 15.7C1.99998 15.5 1.89998 15.2 1.89998 14.9C1.89998 14.6 1.99998 14.4 2.19998 14.2L14.3 2.2C14.7 1.8 15.4 1.8 15.8 2.2C16.5 2.9 27.5 13.9 27.8 14.2C28.2 14.6 28.2 15.3 27.8 15.7C27.4 16.1 26.7 16.1 26.3 15.7C26 15.3 16.4 5.8 15.5 4.9C15.2 4.6 14.8 4.6 14.6 4.9L10.8 8.7C7.69998 11.7 3.89998 15.4 3.69998 15.7Z" fill="black"/>
<path d="M15 17.6C13.1 17.6 11.6 16.1 11.6 14.2C11.6 12.3 13.1 10.8 15 10.8C16.9 10.8 18.4 12.3 18.4 14.2C18.4 16.1 16.9 17.6 15 17.6ZM15 12.1C13.8 12.1 12.9 13.1 12.9 14.2C12.9 15.3 13.9 16.3 15 16.3C16.2 16.3 17.1 15.3 17.1 14.2C17.1 13.1 16.2 12.1 15 12.1Z" fill="black"/>
</g>
<defs>
<clipPath id="clip0_3660_6265">
<rect width="30" height="30" fill="white"/>
</clipPath>
</defs>
</svg>
