<?xml version="1.0" encoding="utf-8"?>
<!-- Generator: Adobe Illustrator 22.1.0, SVG Export Plug-In . SVG Version: 6.00 Build 0)  -->
<svg version="1.1" id="Warstwa_1" xmlns="http://www.w3.org/2000/svg" xmlns:xlink="http://www.w3.org/1999/xlink" x="0px" y="0px"
	 viewBox="0 0 1020 212" style="enable-background:new 0 0 1020 212;" xml:space="preserve"
	 >
<style type="text/css">
	.st0{fill:#fff;}
	.st1{fill:#0076B5;}
	.st2{fill:#E22019;}
</style>
<g>
	<g>
		<path class="st0" d="M278.2,177.6c17.2,0,34.4-4,48.8-11.6l11.6,24c-18.8,9.6-39.6,14-60.4,14c-27.6,0-49.6-10-62.4-27.2
			C200.6,156,200.6,132,200.6,106c0-31.2,0-49.6,14.4-69.6C227.8,18.4,251.8,8,280.2,8c20,0,36,5.2,48,14.8c12,10,19.6,24.8,20,40.4
			c0,17.6-8.8,31.2-20,39.2c-16.8,12-34,12-62.4,12H229c0,10.4,0,34,9.2,46.4C246.2,171.6,259,177.6,278.2,177.6z M309.8,42.8
			c-6.8-5.6-17.2-8.4-29.6-8.4c-18,0-32.4,5.2-41.2,15.6c-10,11.6-10,31.6-10,39.6h36.8c25.2,0,36.4,0,44.8-6.4
			c5.2-4,9.6-10.8,9.6-20C319.8,55.6,315.8,47.6,309.8,42.8z"/>
		<path class="st0" d="M486.5,12.4l-8.4,25.2c-5.6-2-12-3.2-18.8-3.2c-14.4,0-28,5.2-35.6,14.4c-9.6,11.2-9.6,28-9.6,53.2v99.6h-28
			V102c0-32.4,0-51.2,16-70c15.6-18.4,38.8-24,57.2-24C469.3,8,478.5,9.6,486.5,12.4z"/>
		<path class="st0" d="M626.9,45.6c-15.2-7.2-32-11.2-48-11.2c-10,0-17.2,1.6-24,5.6c-6.8,4-11.6,11.2-11.6,20
			c0,8.4,4.4,15.2,10,19.6c8,6.4,16.4,8.4,30.8,11.6c14.4,3.2,27.6,6.8,38.8,14.8c12.4,8.8,23.6,23.6,23.6,43.6
			c0,18-9.2,32.8-21.6,41.6c-12.4,8.8-27.6,12.8-46,12.8c-21.6,0-44-4.4-64.4-14l11.2-24c16.4,7.6,34.8,11.6,53.2,11.6
			c11.6,0,21.6-2,29.2-7.6c7.6-5.6,10.4-13.6,10.4-20.4c0-9.2-4.8-16.8-11.2-21.6c-8.8-6.4-18.8-8.8-31.6-11.6
			c-12.8-2.8-27.2-6.4-39.2-15.6c-12-9.2-21.2-23.6-21.2-40.8c0-18.4,10-32.4,21.6-40.4c11.6-8,25.6-11.6,42-11.6
			c20.4,0,40.4,4.8,58.4,13.2L626.9,45.6z"/>
		<path class="st0" d="M754.1,177.6c17.2,0,34.4-4,48.8-11.6l11.6,24c-18.8,9.6-39.6,14-60.4,14c-27.6,0-49.6-10-62.4-27.2
			C676.5,156,676.5,132,676.5,106c0-31.2,0-49.6,14.4-69.6C703.7,18.4,727.7,8,756.1,8c20,0,36,5.2,48,14.8c12,10,19.6,24.8,20,40.4
			c0,17.6-8.8,31.2-20,39.2c-16.8,12-34,12-62.4,12h-36.8c0,10.4,0,34,9.2,46.4C722.1,171.6,734.9,177.6,754.1,177.6z M785.7,42.8
			c-6.8-5.6-17.2-8.4-29.6-8.4c-18,0-32.4,5.2-41.2,15.6c-10,11.6-10,31.6-10,39.6h36.8c25.2,0,36.4,0,44.8-6.4
			c5.2-4,9.6-10.8,9.6-20C795.6,55.6,791.7,47.6,785.7,42.8z"/>
		<path class="st0" d="M998.4,42c11.6,19.2,11.6,41.2,11.6,64c0,22.8,0,44.8-11.6,64c-12.8,21.2-36,34-64.4,34
			c-28.4,0-51.6-12.8-64.4-34C858,150.8,858,128.8,858,106c0-22.8,0-44.8,11.6-64c12.8-21.2,36-34,64.4-34
			C962.4,8,985.6,20.8,998.4,42z M894.8,53.6c-8.8,13.2-8.8,32-8.8,52.4c0,20.4,0,39.2,8.8,52.4c8,12,21.6,19.2,39.2,19.2
			c17.6,0,31.2-7.2,39.2-19.2c8.8-13.2,8.8-32,8.8-52.4c0-20.4,0-39.2-8.8-52.4c-8-12-21.6-19.2-39.2-19.2
			C916.4,34.4,902.8,41.6,894.8,53.6z"/>
		<g>
			<polygon class="st1" points="154.2,62.2 166.8,10.4 138,10.4 125.5,62.2 			"/>
			<path class="st0" d="M119.9,85.3l-16.7,69.1c-2.4,10.4-4,16.4-6.4,19.2c-2,2.4-5.2,4-8.4,4c-3.2,0-6.4-1.6-8.4-4
				c-2.4-2.8-4-8.8-6.4-19.2L56.9,85.3H28.2l17.4,71.9c4.4,18.4,6.4,28.8,17.6,38c6.4,5.2,15.2,8.8,25.2,8.8c10,0,18.8-3.6,25.2-8.8
				c11.2-9.2,13.2-19.6,17.6-38l17.4-71.9H119.9z"/>
			<polygon class="st2" points="51.3,62.2 38.8,10.4 10,10.4 22.5,62.2 			"/>
		</g>
	</g>
</g>
</svg>
